<mxfile host="drawio-plugin" modified="2021-07-09T16:42:03.315Z" agent="5.0 (Windows NT 6.2; Win64; x64) AppleWebKit/537.36 (KHTML, like Gecko) Chrome/89.0.4389.90 Safari/537.36" etag="lagUPNSLGrowX8n9qWlx" version="14.7.4" type="embed"><diagram id="PeXLtKAOujKj0r7Rdp0b" name="Page-1"><mxGraphModel dx="1168" dy="813" grid="1" gridSize="10" guides="1" tooltips="1" connect="1" arrows="1" fold="1" page="1" pageScale="1" pageWidth="827" pageHeight="1169" math="0" shadow="0"><root><mxCell id="0"/><mxCell id="1" parent="0"/><mxCell id="W8nmE6WbgOSF25TQNUTi-1" value="&lt;h2&gt;N = 5&lt;/h2&gt;&lt;h2&gt;M = 20&lt;/h2&gt;" style="text;html=1;align=center;verticalAlign=middle;resizable=0;points=[];autosize=1;strokeColor=none;" parent="1" vertex="1"><mxGeometry x="580" y="415" width="70" height="80" as="geometry"/></mxCell><mxCell id="W8nmE6WbgOSF25TQNUTi-2" value="" style="shape=table;html=1;whiteSpace=wrap;startSize=0;container=1;collapsible=0;childLayout=tableLayout;" parent="1" vertex="1"><mxGeometry x="570" y="610" width="660" height="230" as="geometry"/></mxCell><mxCell id="W8nmE6WbgOSF25TQNUTi-3" style="shape=partialRectangle;html=1;whiteSpace=wrap;collapsible=0;dropTarget=0;pointerEvents=0;fillColor=none;top=0;left=0;bottom=0;right=0;points=[[0,0.5],[1,0.5]];portConstraint=eastwest;" parent="W8nmE6WbgOSF25TQNUTi-2" vertex="1"><mxGeometry width="660" height="18" as="geometry"/></mxCell><mxCell id="W8nmE6WbgOSF25TQNUTi-4" value="&lt;font face=&quot;Lucida Console&quot;&gt;dy&lt;/font&gt;" style="shape=partialRectangle;html=1;whiteSpace=wrap;connectable=0;overflow=hidden;fillColor=#f5f5f5;top=0;left=0;bottom=0;right=0;strokeColor=#666666;fontColor=#333333;" parent="W8nmE6WbgOSF25TQNUTi-3" vertex="1"><mxGeometry width="30" height="18" as="geometry"/></mxCell><mxCell id="W8nmE6WbgOSF25TQNUTi-5" value="0" style="shape=partialRectangle;html=1;whiteSpace=wrap;connectable=0;overflow=hidden;fillColor=#f5f5f5;top=0;left=0;bottom=0;right=0;strokeColor=#666666;fontColor=#333333;" parent="W8nmE6WbgOSF25TQNUTi-3" vertex="1"><mxGeometry x="30" width="30" height="18" as="geometry"/></mxCell><mxCell id="W8nmE6WbgOSF25TQNUTi-6" value="1" style="shape=partialRectangle;html=1;whiteSpace=wrap;connectable=0;overflow=hidden;fillColor=#f5f5f5;top=0;left=0;bottom=0;right=0;strokeColor=#666666;fontColor=#333333;" parent="W8nmE6WbgOSF25TQNUTi-3" vertex="1"><mxGeometry x="60" width="30" height="18" as="geometry"/></mxCell><mxCell id="W8nmE6WbgOSF25TQNUTi-7" value="2" style="shape=partialRectangle;html=1;whiteSpace=wrap;connectable=0;overflow=hidden;fillColor=#f5f5f5;top=0;left=0;bottom=0;right=0;strokeColor=#666666;fontColor=#333333;" parent="W8nmE6WbgOSF25TQNUTi-3" vertex="1"><mxGeometry x="90" width="30" height="18" as="geometry"/></mxCell><mxCell id="W8nmE6WbgOSF25TQNUTi-8" value="3" style="shape=partialRectangle;html=1;whiteSpace=wrap;connectable=0;overflow=hidden;fillColor=#f5f5f5;top=0;left=0;bottom=0;right=0;strokeColor=#666666;fontColor=#333333;" parent="W8nmE6WbgOSF25TQNUTi-3" vertex="1"><mxGeometry x="120" width="29" height="18" as="geometry"/></mxCell><mxCell id="W8nmE6WbgOSF25TQNUTi-9" value="4" style="shape=partialRectangle;html=1;whiteSpace=wrap;connectable=0;overflow=hidden;fillColor=#f5f5f5;top=0;left=0;bottom=0;right=0;strokeColor=#666666;fontColor=#333333;" parent="W8nmE6WbgOSF25TQNUTi-3" vertex="1"><mxGeometry x="149" width="32" height="18" as="geometry"/></mxCell><mxCell id="W8nmE6WbgOSF25TQNUTi-10" value="5" style="shape=partialRectangle;html=1;whiteSpace=wrap;connectable=0;overflow=hidden;fillColor=#f5f5f5;top=0;left=0;bottom=0;right=0;strokeColor=#666666;fontColor=#333333;" parent="W8nmE6WbgOSF25TQNUTi-3" vertex="1"><mxGeometry x="181" width="29" height="18" as="geometry"/></mxCell><mxCell id="W8nmE6WbgOSF25TQNUTi-11" value="6" style="shape=partialRectangle;html=1;whiteSpace=wrap;connectable=0;overflow=hidden;fillColor=#f5f5f5;top=0;left=0;bottom=0;right=0;strokeColor=#666666;fontColor=#333333;" parent="W8nmE6WbgOSF25TQNUTi-3" vertex="1"><mxGeometry x="210" width="30" height="18" as="geometry"/></mxCell><mxCell id="W8nmE6WbgOSF25TQNUTi-12" value="7" style="shape=partialRectangle;html=1;whiteSpace=wrap;connectable=0;overflow=hidden;fillColor=#f5f5f5;top=0;left=0;bottom=0;right=0;strokeColor=#666666;fontColor=#333333;" parent="W8nmE6WbgOSF25TQNUTi-3" vertex="1"><mxGeometry x="240" width="30" height="18" as="geometry"/></mxCell><mxCell id="W8nmE6WbgOSF25TQNUTi-13" value="8" style="shape=partialRectangle;html=1;whiteSpace=wrap;connectable=0;overflow=hidden;fillColor=#f5f5f5;top=0;left=0;bottom=0;right=0;strokeColor=#666666;fontColor=#333333;" parent="W8nmE6WbgOSF25TQNUTi-3" vertex="1"><mxGeometry x="270" width="30" height="18" as="geometry"/></mxCell><mxCell id="W8nmE6WbgOSF25TQNUTi-14" value="9" style="shape=partialRectangle;html=1;whiteSpace=wrap;connectable=0;overflow=hidden;fillColor=#f5f5f5;top=0;left=0;bottom=0;right=0;strokeColor=#666666;fontColor=#333333;" parent="W8nmE6WbgOSF25TQNUTi-3" vertex="1"><mxGeometry x="300" width="30" height="18" as="geometry"/></mxCell><mxCell id="W8nmE6WbgOSF25TQNUTi-15" value="10" style="shape=partialRectangle;html=1;whiteSpace=wrap;connectable=0;overflow=hidden;fillColor=#f5f5f5;top=0;left=0;bottom=0;right=0;strokeColor=#666666;fontColor=#333333;" parent="W8nmE6WbgOSF25TQNUTi-3" vertex="1"><mxGeometry x="330" width="30" height="18" as="geometry"/></mxCell><mxCell id="W8nmE6WbgOSF25TQNUTi-16" value="11" style="shape=partialRectangle;html=1;whiteSpace=wrap;connectable=0;overflow=hidden;fillColor=#f5f5f5;top=0;left=0;bottom=0;right=0;strokeColor=#666666;fontColor=#333333;" parent="W8nmE6WbgOSF25TQNUTi-3" vertex="1"><mxGeometry x="360" width="30" height="18" as="geometry"/></mxCell><mxCell id="W8nmE6WbgOSF25TQNUTi-17" value="12" style="shape=partialRectangle;html=1;whiteSpace=wrap;connectable=0;overflow=hidden;fillColor=#f5f5f5;top=0;left=0;bottom=0;right=0;strokeColor=#666666;fontColor=#333333;" parent="W8nmE6WbgOSF25TQNUTi-3" vertex="1"><mxGeometry x="390" width="30" height="18" as="geometry"/></mxCell><mxCell id="W8nmE6WbgOSF25TQNUTi-18" value="13" style="shape=partialRectangle;html=1;whiteSpace=wrap;connectable=0;overflow=hidden;fillColor=#f5f5f5;top=0;left=0;bottom=0;right=0;strokeColor=#666666;fontColor=#333333;" parent="W8nmE6WbgOSF25TQNUTi-3" vertex="1"><mxGeometry x="420" width="30" height="18" as="geometry"/></mxCell><mxCell id="W8nmE6WbgOSF25TQNUTi-19" value="14" style="shape=partialRectangle;html=1;whiteSpace=wrap;connectable=0;overflow=hidden;fillColor=#f5f5f5;top=0;left=0;bottom=0;right=0;strokeColor=#666666;fontColor=#333333;" parent="W8nmE6WbgOSF25TQNUTi-3" vertex="1"><mxGeometry x="450" width="29" height="18" as="geometry"/></mxCell><mxCell id="W8nmE6WbgOSF25TQNUTi-20" value="15" style="shape=partialRectangle;html=1;whiteSpace=wrap;connectable=0;overflow=hidden;fillColor=#f5f5f5;top=0;left=0;bottom=0;right=0;strokeColor=#666666;fontColor=#333333;" parent="W8nmE6WbgOSF25TQNUTi-3" vertex="1"><mxGeometry x="479" width="32" height="18" as="geometry"/></mxCell><mxCell id="W8nmE6WbgOSF25TQNUTi-21" value="16" style="shape=partialRectangle;html=1;whiteSpace=wrap;connectable=0;overflow=hidden;fillColor=#f5f5f5;top=0;left=0;bottom=0;right=0;strokeColor=#666666;fontColor=#333333;" parent="W8nmE6WbgOSF25TQNUTi-3" vertex="1"><mxGeometry x="511" width="29" height="18" as="geometry"/></mxCell><mxCell id="W8nmE6WbgOSF25TQNUTi-22" value="17" style="shape=partialRectangle;html=1;whiteSpace=wrap;connectable=0;overflow=hidden;fillColor=#f5f5f5;top=0;left=0;bottom=0;right=0;strokeColor=#666666;fontColor=#333333;" parent="W8nmE6WbgOSF25TQNUTi-3" vertex="1"><mxGeometry x="540" width="30" height="18" as="geometry"/></mxCell><mxCell id="W8nmE6WbgOSF25TQNUTi-23" value="18" style="shape=partialRectangle;html=1;whiteSpace=wrap;connectable=0;overflow=hidden;fillColor=#f5f5f5;top=0;left=0;bottom=0;right=0;strokeColor=#666666;fontColor=#333333;" parent="W8nmE6WbgOSF25TQNUTi-3" vertex="1"><mxGeometry x="570" width="30" height="18" as="geometry"/></mxCell><mxCell id="W8nmE6WbgOSF25TQNUTi-24" value="19" style="shape=partialRectangle;html=1;whiteSpace=wrap;connectable=0;overflow=hidden;fillColor=#f5f5f5;top=0;left=0;bottom=0;right=0;strokeColor=#666666;fontColor=#333333;" parent="W8nmE6WbgOSF25TQNUTi-3" vertex="1"><mxGeometry x="600" width="30" height="18" as="geometry"/></mxCell><mxCell id="W8nmE6WbgOSF25TQNUTi-25" value="20" style="shape=partialRectangle;html=1;whiteSpace=wrap;connectable=0;overflow=hidden;fillColor=#f5f5f5;top=0;left=0;bottom=0;right=0;strokeColor=#666666;fontColor=#333333;" parent="W8nmE6WbgOSF25TQNUTi-3" vertex="1"><mxGeometry x="630" width="30" height="18" as="geometry"/></mxCell><mxCell id="W8nmE6WbgOSF25TQNUTi-26" value="" style="shape=partialRectangle;html=1;whiteSpace=wrap;collapsible=0;dropTarget=0;pointerEvents=0;fillColor=none;top=0;left=0;bottom=0;right=0;points=[[0,0.5],[1,0.5]];portConstraint=eastwest;" parent="W8nmE6WbgOSF25TQNUTi-2" vertex="1"><mxGeometry y="18" width="660" height="35" as="geometry"/></mxCell><mxCell id="W8nmE6WbgOSF25TQNUTi-27" value="0" style="shape=partialRectangle;html=1;whiteSpace=wrap;connectable=0;overflow=hidden;fillColor=#f5f5f5;top=0;left=0;bottom=0;right=0;strokeColor=#666666;fontColor=#333333;" parent="W8nmE6WbgOSF25TQNUTi-26" vertex="1"><mxGeometry width="30" height="35" as="geometry"/></mxCell><mxCell id="W8nmE6WbgOSF25TQNUTi-28" value="0" style="shape=partialRectangle;html=1;whiteSpace=wrap;connectable=0;overflow=hidden;fillColor=none;top=0;left=0;bottom=0;right=0;" parent="W8nmE6WbgOSF25TQNUTi-26" vertex="1"><mxGeometry x="30" width="30" height="35" as="geometry"/></mxCell><mxCell id="W8nmE6WbgOSF25TQNUTi-29" value="0" style="shape=partialRectangle;html=1;whiteSpace=wrap;connectable=0;overflow=hidden;fillColor=none;top=0;left=0;bottom=0;right=0;" parent="W8nmE6WbgOSF25TQNUTi-26" vertex="1"><mxGeometry x="60" width="30" height="35" as="geometry"/></mxCell><mxCell id="W8nmE6WbgOSF25TQNUTi-30" value="0" style="shape=partialRectangle;html=1;whiteSpace=wrap;connectable=0;overflow=hidden;fillColor=none;top=0;left=0;bottom=0;right=0;" parent="W8nmE6WbgOSF25TQNUTi-26" vertex="1"><mxGeometry x="90" width="30" height="35" as="geometry"/></mxCell><mxCell id="W8nmE6WbgOSF25TQNUTi-31" value="0" style="shape=partialRectangle;html=1;whiteSpace=wrap;connectable=0;overflow=hidden;fillColor=none;top=0;left=0;bottom=0;right=0;" parent="W8nmE6WbgOSF25TQNUTi-26" vertex="1"><mxGeometry x="120" width="29" height="35" as="geometry"/></mxCell><mxCell id="W8nmE6WbgOSF25TQNUTi-32" value="0" style="shape=partialRectangle;html=1;whiteSpace=wrap;connectable=0;overflow=hidden;fillColor=none;top=0;left=0;bottom=0;right=0;" parent="W8nmE6WbgOSF25TQNUTi-26" vertex="1"><mxGeometry x="149" width="32" height="35" as="geometry"/></mxCell><mxCell id="W8nmE6WbgOSF25TQNUTi-33" value="0" style="shape=partialRectangle;html=1;whiteSpace=wrap;connectable=0;overflow=hidden;fillColor=none;top=0;left=0;bottom=0;right=0;" parent="W8nmE6WbgOSF25TQNUTi-26" vertex="1"><mxGeometry x="181" width="29" height="35" as="geometry"/></mxCell><mxCell id="W8nmE6WbgOSF25TQNUTi-34" value="0" style="shape=partialRectangle;html=1;whiteSpace=wrap;connectable=0;overflow=hidden;fillColor=none;top=0;left=0;bottom=0;right=0;" parent="W8nmE6WbgOSF25TQNUTi-26" vertex="1"><mxGeometry x="210" width="30" height="35" as="geometry"/></mxCell><mxCell id="W8nmE6WbgOSF25TQNUTi-35" value="0" style="shape=partialRectangle;html=1;whiteSpace=wrap;connectable=0;overflow=hidden;fillColor=none;top=0;left=0;bottom=0;right=0;" parent="W8nmE6WbgOSF25TQNUTi-26" vertex="1"><mxGeometry x="240" width="30" height="35" as="geometry"/></mxCell><mxCell id="W8nmE6WbgOSF25TQNUTi-36" value="0" style="shape=partialRectangle;html=1;whiteSpace=wrap;connectable=0;overflow=hidden;fillColor=none;top=0;left=0;bottom=0;right=0;" parent="W8nmE6WbgOSF25TQNUTi-26" vertex="1"><mxGeometry x="270" width="30" height="35" as="geometry"/></mxCell><mxCell id="W8nmE6WbgOSF25TQNUTi-37" value="0" style="shape=partialRectangle;html=1;whiteSpace=wrap;connectable=0;overflow=hidden;fillColor=none;top=0;left=0;bottom=0;right=0;" parent="W8nmE6WbgOSF25TQNUTi-26" vertex="1"><mxGeometry x="300" width="30" height="35" as="geometry"/></mxCell><mxCell id="W8nmE6WbgOSF25TQNUTi-38" value="0" style="shape=partialRectangle;html=1;whiteSpace=wrap;connectable=0;overflow=hidden;fillColor=none;top=0;left=0;bottom=0;right=0;" parent="W8nmE6WbgOSF25TQNUTi-26" vertex="1"><mxGeometry x="330" width="30" height="35" as="geometry"/></mxCell><mxCell id="W8nmE6WbgOSF25TQNUTi-39" value="0" style="shape=partialRectangle;html=1;whiteSpace=wrap;connectable=0;overflow=hidden;fillColor=none;top=0;left=0;bottom=0;right=0;" parent="W8nmE6WbgOSF25TQNUTi-26" vertex="1"><mxGeometry x="360" width="30" height="35" as="geometry"/></mxCell><mxCell id="W8nmE6WbgOSF25TQNUTi-40" value="0" style="shape=partialRectangle;html=1;whiteSpace=wrap;connectable=0;overflow=hidden;fillColor=none;top=0;left=0;bottom=0;right=0;" parent="W8nmE6WbgOSF25TQNUTi-26" vertex="1"><mxGeometry x="390" width="30" height="35" as="geometry"/></mxCell><mxCell id="W8nmE6WbgOSF25TQNUTi-41" value="0" style="shape=partialRectangle;html=1;whiteSpace=wrap;connectable=0;overflow=hidden;fillColor=none;top=0;left=0;bottom=0;right=0;" parent="W8nmE6WbgOSF25TQNUTi-26" vertex="1"><mxGeometry x="420" width="30" height="35" as="geometry"/></mxCell><mxCell id="W8nmE6WbgOSF25TQNUTi-42" value="0" style="shape=partialRectangle;html=1;whiteSpace=wrap;connectable=0;overflow=hidden;fillColor=none;top=0;left=0;bottom=0;right=0;" parent="W8nmE6WbgOSF25TQNUTi-26" vertex="1"><mxGeometry x="450" width="29" height="35" as="geometry"/></mxCell><mxCell id="W8nmE6WbgOSF25TQNUTi-43" value="0" style="shape=partialRectangle;html=1;whiteSpace=wrap;connectable=0;overflow=hidden;fillColor=none;top=0;left=0;bottom=0;right=0;" parent="W8nmE6WbgOSF25TQNUTi-26" vertex="1"><mxGeometry x="479" width="32" height="35" as="geometry"/></mxCell><mxCell id="W8nmE6WbgOSF25TQNUTi-44" value="0" style="shape=partialRectangle;html=1;whiteSpace=wrap;connectable=0;overflow=hidden;fillColor=none;top=0;left=0;bottom=0;right=0;" parent="W8nmE6WbgOSF25TQNUTi-26" vertex="1"><mxGeometry x="511" width="29" height="35" as="geometry"/></mxCell><mxCell id="W8nmE6WbgOSF25TQNUTi-45" value="0" style="shape=partialRectangle;html=1;whiteSpace=wrap;connectable=0;overflow=hidden;fillColor=none;top=0;left=0;bottom=0;right=0;" parent="W8nmE6WbgOSF25TQNUTi-26" vertex="1"><mxGeometry x="540" width="30" height="35" as="geometry"/></mxCell><mxCell id="W8nmE6WbgOSF25TQNUTi-46" value="0" style="shape=partialRectangle;html=1;whiteSpace=wrap;connectable=0;overflow=hidden;fillColor=none;top=0;left=0;bottom=0;right=0;" parent="W8nmE6WbgOSF25TQNUTi-26" vertex="1"><mxGeometry x="570" width="30" height="35" as="geometry"/></mxCell><mxCell id="W8nmE6WbgOSF25TQNUTi-47" value="0" style="shape=partialRectangle;html=1;whiteSpace=wrap;connectable=0;overflow=hidden;fillColor=none;top=0;left=0;bottom=0;right=0;" parent="W8nmE6WbgOSF25TQNUTi-26" vertex="1"><mxGeometry x="600" width="30" height="35" as="geometry"/></mxCell><mxCell id="W8nmE6WbgOSF25TQNUTi-48" value="0" style="shape=partialRectangle;html=1;whiteSpace=wrap;connectable=0;overflow=hidden;fillColor=none;top=0;left=0;bottom=0;right=0;" parent="W8nmE6WbgOSF25TQNUTi-26" vertex="1"><mxGeometry x="630" width="30" height="35" as="geometry"/></mxCell><mxCell id="W8nmE6WbgOSF25TQNUTi-49" value="" style="shape=partialRectangle;html=1;whiteSpace=wrap;collapsible=0;dropTarget=0;pointerEvents=0;fillColor=none;top=0;left=0;bottom=0;right=0;points=[[0,0.5],[1,0.5]];portConstraint=eastwest;" parent="W8nmE6WbgOSF25TQNUTi-2" vertex="1"><mxGeometry y="53" width="660" height="35" as="geometry"/></mxCell><mxCell id="W8nmE6WbgOSF25TQNUTi-50" value="1" style="shape=partialRectangle;html=1;whiteSpace=wrap;connectable=0;overflow=hidden;fillColor=#f5f5f5;top=0;left=0;bottom=0;right=0;strokeColor=#666666;fontColor=#333333;" parent="W8nmE6WbgOSF25TQNUTi-49" vertex="1"><mxGeometry width="30" height="35" as="geometry"/></mxCell><mxCell id="W8nmE6WbgOSF25TQNUTi-51" value="0" style="shape=partialRectangle;html=1;whiteSpace=wrap;connectable=0;overflow=hidden;fillColor=none;top=0;left=0;bottom=0;right=0;" parent="W8nmE6WbgOSF25TQNUTi-49" vertex="1"><mxGeometry x="30" width="30" height="35" as="geometry"/></mxCell><mxCell id="W8nmE6WbgOSF25TQNUTi-52" value="0" style="shape=partialRectangle;html=1;whiteSpace=wrap;connectable=0;overflow=hidden;fillColor=none;top=0;left=0;bottom=0;right=0;" parent="W8nmE6WbgOSF25TQNUTi-49" vertex="1"><mxGeometry x="60" width="30" height="35" as="geometry"/></mxCell><mxCell id="W8nmE6WbgOSF25TQNUTi-53" value="0" style="shape=partialRectangle;html=1;whiteSpace=wrap;connectable=0;overflow=hidden;fillColor=none;top=0;left=0;bottom=0;right=0;" parent="W8nmE6WbgOSF25TQNUTi-49" vertex="1"><mxGeometry x="90" width="30" height="35" as="geometry"/></mxCell><mxCell id="W8nmE6WbgOSF25TQNUTi-54" value="0" style="shape=partialRectangle;html=1;whiteSpace=wrap;connectable=0;overflow=hidden;fillColor=none;top=0;left=0;bottom=0;right=0;" parent="W8nmE6WbgOSF25TQNUTi-49" vertex="1"><mxGeometry x="120" width="29" height="35" as="geometry"/></mxCell><mxCell id="W8nmE6WbgOSF25TQNUTi-55" value="0" style="shape=partialRectangle;html=1;whiteSpace=wrap;connectable=0;overflow=hidden;fillColor=none;top=0;left=0;bottom=0;right=0;" parent="W8nmE6WbgOSF25TQNUTi-49" vertex="1"><mxGeometry x="149" width="32" height="35" as="geometry"/></mxCell><mxCell id="W8nmE6WbgOSF25TQNUTi-56" value="10" style="shape=partialRectangle;html=1;whiteSpace=wrap;connectable=0;overflow=hidden;fillColor=none;top=0;left=0;bottom=0;right=0;" parent="W8nmE6WbgOSF25TQNUTi-49" vertex="1"><mxGeometry x="181" width="29" height="35" as="geometry"/></mxCell><mxCell id="W8nmE6WbgOSF25TQNUTi-57" value="10" style="shape=partialRectangle;html=1;whiteSpace=wrap;connectable=0;overflow=hidden;fillColor=none;top=0;left=0;bottom=0;right=0;" parent="W8nmE6WbgOSF25TQNUTi-49" vertex="1"><mxGeometry x="210" width="30" height="35" as="geometry"/></mxCell><mxCell id="W8nmE6WbgOSF25TQNUTi-58" value="10" style="shape=partialRectangle;html=1;whiteSpace=wrap;connectable=0;overflow=hidden;fillColor=none;top=0;left=0;bottom=0;right=0;" parent="W8nmE6WbgOSF25TQNUTi-49" vertex="1"><mxGeometry x="240" width="30" height="35" as="geometry"/></mxCell><mxCell id="W8nmE6WbgOSF25TQNUTi-59" value="10" style="shape=partialRectangle;html=1;whiteSpace=wrap;connectable=0;overflow=hidden;fillColor=none;top=0;left=0;bottom=0;right=0;" parent="W8nmE6WbgOSF25TQNUTi-49" vertex="1"><mxGeometry x="270" width="30" height="35" as="geometry"/></mxCell><mxCell id="W8nmE6WbgOSF25TQNUTi-60" value="10" style="shape=partialRectangle;html=1;whiteSpace=wrap;connectable=0;overflow=hidden;fillColor=none;top=0;left=0;bottom=0;right=0;" parent="W8nmE6WbgOSF25TQNUTi-49" vertex="1"><mxGeometry x="300" width="30" height="35" as="geometry"/></mxCell><mxCell id="W8nmE6WbgOSF25TQNUTi-61" value="10" style="shape=partialRectangle;html=1;whiteSpace=wrap;connectable=0;overflow=hidden;fillColor=none;top=0;left=0;bottom=0;right=0;" parent="W8nmE6WbgOSF25TQNUTi-49" vertex="1"><mxGeometry x="330" width="30" height="35" as="geometry"/></mxCell><mxCell id="W8nmE6WbgOSF25TQNUTi-62" value="10" style="shape=partialRectangle;html=1;whiteSpace=wrap;connectable=0;overflow=hidden;fillColor=none;top=0;left=0;bottom=0;right=0;" parent="W8nmE6WbgOSF25TQNUTi-49" vertex="1"><mxGeometry x="360" width="30" height="35" as="geometry"/></mxCell><mxCell id="W8nmE6WbgOSF25TQNUTi-63" value="10" style="shape=partialRectangle;html=1;whiteSpace=wrap;connectable=0;overflow=hidden;fillColor=none;top=0;left=0;bottom=0;right=0;" parent="W8nmE6WbgOSF25TQNUTi-49" vertex="1"><mxGeometry x="390" width="30" height="35" as="geometry"/></mxCell><mxCell id="W8nmE6WbgOSF25TQNUTi-64" value="10" style="shape=partialRectangle;html=1;whiteSpace=wrap;connectable=0;overflow=hidden;fillColor=none;top=0;left=0;bottom=0;right=0;" parent="W8nmE6WbgOSF25TQNUTi-49" vertex="1"><mxGeometry x="420" width="30" height="35" as="geometry"/></mxCell><mxCell id="W8nmE6WbgOSF25TQNUTi-65" value="10" style="shape=partialRectangle;html=1;whiteSpace=wrap;connectable=0;overflow=hidden;fillColor=none;top=0;left=0;bottom=0;right=0;" parent="W8nmE6WbgOSF25TQNUTi-49" vertex="1"><mxGeometry x="450" width="29" height="35" as="geometry"/></mxCell><mxCell id="W8nmE6WbgOSF25TQNUTi-66" value="&lt;span&gt;10&lt;/span&gt;" style="shape=partialRectangle;html=1;whiteSpace=wrap;connectable=0;overflow=hidden;fillColor=none;top=0;left=0;bottom=0;right=0;" parent="W8nmE6WbgOSF25TQNUTi-49" vertex="1"><mxGeometry x="479" width="32" height="35" as="geometry"/></mxCell><mxCell id="W8nmE6WbgOSF25TQNUTi-67" value="10" style="shape=partialRectangle;html=1;whiteSpace=wrap;connectable=0;overflow=hidden;fillColor=none;top=0;left=0;bottom=0;right=0;" parent="W8nmE6WbgOSF25TQNUTi-49" vertex="1"><mxGeometry x="511" width="29" height="35" as="geometry"/></mxCell><mxCell id="W8nmE6WbgOSF25TQNUTi-68" value="10" style="shape=partialRectangle;html=1;whiteSpace=wrap;connectable=0;overflow=hidden;fillColor=none;top=0;left=0;bottom=0;right=0;" parent="W8nmE6WbgOSF25TQNUTi-49" vertex="1"><mxGeometry x="540" width="30" height="35" as="geometry"/></mxCell><mxCell id="W8nmE6WbgOSF25TQNUTi-69" value="&lt;span&gt;10&lt;/span&gt;" style="shape=partialRectangle;html=1;whiteSpace=wrap;connectable=0;overflow=hidden;fillColor=none;top=0;left=0;bottom=0;right=0;" parent="W8nmE6WbgOSF25TQNUTi-49" vertex="1"><mxGeometry x="570" width="30" height="35" as="geometry"/></mxCell><mxCell id="W8nmE6WbgOSF25TQNUTi-70" value="10" style="shape=partialRectangle;html=1;whiteSpace=wrap;connectable=0;overflow=hidden;fillColor=none;top=0;left=0;bottom=0;right=0;" parent="W8nmE6WbgOSF25TQNUTi-49" vertex="1"><mxGeometry x="600" width="30" height="35" as="geometry"/></mxCell><mxCell id="W8nmE6WbgOSF25TQNUTi-71" value="10" style="shape=partialRectangle;html=1;whiteSpace=wrap;connectable=0;overflow=hidden;fillColor=none;top=0;left=0;bottom=0;right=0;" parent="W8nmE6WbgOSF25TQNUTi-49" vertex="1"><mxGeometry x="630" width="30" height="35" as="geometry"/></mxCell><mxCell id="W8nmE6WbgOSF25TQNUTi-72" value="" style="shape=partialRectangle;html=1;whiteSpace=wrap;collapsible=0;dropTarget=0;pointerEvents=0;fillColor=none;top=0;left=0;bottom=0;right=0;points=[[0,0.5],[1,0.5]];portConstraint=eastwest;" parent="W8nmE6WbgOSF25TQNUTi-2" vertex="1"><mxGeometry y="88" width="660" height="36" as="geometry"/></mxCell><mxCell id="W8nmE6WbgOSF25TQNUTi-73" value="2" style="shape=partialRectangle;html=1;whiteSpace=wrap;connectable=0;overflow=hidden;fillColor=#f5f5f5;top=0;left=0;bottom=0;right=0;strokeColor=#666666;fontColor=#333333;" parent="W8nmE6WbgOSF25TQNUTi-72" vertex="1"><mxGeometry width="30" height="36" as="geometry"/></mxCell><mxCell id="W8nmE6WbgOSF25TQNUTi-74" value="0" style="shape=partialRectangle;html=1;whiteSpace=wrap;connectable=0;overflow=hidden;fillColor=none;top=0;left=0;bottom=0;right=0;" parent="W8nmE6WbgOSF25TQNUTi-72" vertex="1"><mxGeometry x="30" width="30" height="36" as="geometry"/></mxCell><mxCell id="W8nmE6WbgOSF25TQNUTi-75" value="0" style="shape=partialRectangle;html=1;whiteSpace=wrap;connectable=0;overflow=hidden;fillColor=none;top=0;left=0;bottom=0;right=0;" parent="W8nmE6WbgOSF25TQNUTi-72" vertex="1"><mxGeometry x="60" width="30" height="36" as="geometry"/></mxCell><mxCell id="W8nmE6WbgOSF25TQNUTi-76" value="0" style="shape=partialRectangle;html=1;whiteSpace=wrap;connectable=0;overflow=hidden;fillColor=none;top=0;left=0;bottom=0;right=0;" parent="W8nmE6WbgOSF25TQNUTi-72" vertex="1"><mxGeometry x="90" width="30" height="36" as="geometry"/></mxCell><mxCell id="W8nmE6WbgOSF25TQNUTi-77" value="0" style="shape=partialRectangle;html=1;whiteSpace=wrap;connectable=0;overflow=hidden;fillColor=none;top=0;left=0;bottom=0;right=0;" parent="W8nmE6WbgOSF25TQNUTi-72" vertex="1"><mxGeometry x="120" width="29" height="36" as="geometry"/></mxCell><mxCell id="W8nmE6WbgOSF25TQNUTi-78" value="0" style="shape=partialRectangle;html=1;whiteSpace=wrap;connectable=0;overflow=hidden;fillColor=none;top=0;left=0;bottom=0;right=0;" parent="W8nmE6WbgOSF25TQNUTi-72" vertex="1"><mxGeometry x="149" width="32" height="36" as="geometry"/></mxCell><mxCell id="W8nmE6WbgOSF25TQNUTi-79" value="10" style="shape=partialRectangle;html=1;whiteSpace=wrap;connectable=0;overflow=hidden;fillColor=none;top=0;left=0;bottom=0;right=0;" parent="W8nmE6WbgOSF25TQNUTi-72" vertex="1"><mxGeometry x="181" width="29" height="36" as="geometry"/></mxCell><mxCell id="W8nmE6WbgOSF25TQNUTi-80" value="&lt;span&gt;10&lt;/span&gt;" style="shape=partialRectangle;html=1;whiteSpace=wrap;connectable=0;overflow=hidden;fillColor=none;top=0;left=0;bottom=0;right=0;" parent="W8nmE6WbgOSF25TQNUTi-72" vertex="1"><mxGeometry x="210" width="30" height="36" as="geometry"/></mxCell><mxCell id="W8nmE6WbgOSF25TQNUTi-81" value="&lt;span&gt;10&lt;/span&gt;" style="shape=partialRectangle;html=1;whiteSpace=wrap;connectable=0;overflow=hidden;fillColor=none;top=0;left=0;bottom=0;right=0;" parent="W8nmE6WbgOSF25TQNUTi-72" vertex="1"><mxGeometry x="240" width="30" height="36" as="geometry"/></mxCell><mxCell id="W8nmE6WbgOSF25TQNUTi-82" value="&lt;span&gt;10&lt;/span&gt;" style="shape=partialRectangle;html=1;whiteSpace=wrap;connectable=0;overflow=hidden;fillColor=none;top=0;left=0;bottom=0;right=0;" parent="W8nmE6WbgOSF25TQNUTi-72" vertex="1"><mxGeometry x="270" width="30" height="36" as="geometry"/></mxCell><mxCell id="W8nmE6WbgOSF25TQNUTi-83" value="&lt;span&gt;10&lt;/span&gt;" style="shape=partialRectangle;html=1;whiteSpace=wrap;connectable=0;overflow=hidden;fillColor=none;top=0;left=0;bottom=0;right=0;" parent="W8nmE6WbgOSF25TQNUTi-72" vertex="1"><mxGeometry x="300" width="30" height="36" as="geometry"/></mxCell><mxCell id="W8nmE6WbgOSF25TQNUTi-84" value="&lt;span&gt;10&lt;/span&gt;" style="shape=partialRectangle;html=1;whiteSpace=wrap;connectable=0;overflow=hidden;fillColor=none;top=0;left=0;bottom=0;right=0;" parent="W8nmE6WbgOSF25TQNUTi-72" vertex="1"><mxGeometry x="330" width="30" height="36" as="geometry"/></mxCell><mxCell id="W8nmE6WbgOSF25TQNUTi-85" value="&lt;span&gt;10&lt;/span&gt;" style="shape=partialRectangle;html=1;whiteSpace=wrap;connectable=0;overflow=hidden;fillColor=none;top=0;left=0;bottom=0;right=0;" parent="W8nmE6WbgOSF25TQNUTi-72" vertex="1"><mxGeometry x="360" width="30" height="36" as="geometry"/></mxCell><mxCell id="W8nmE6WbgOSF25TQNUTi-86" value="&lt;span&gt;25&lt;/span&gt;" style="shape=partialRectangle;html=1;whiteSpace=wrap;connectable=0;overflow=hidden;fillColor=none;top=0;left=0;bottom=0;right=0;" parent="W8nmE6WbgOSF25TQNUTi-72" vertex="1"><mxGeometry x="390" width="30" height="36" as="geometry"/></mxCell><mxCell id="W8nmE6WbgOSF25TQNUTi-87" value="&lt;span&gt;25&lt;/span&gt;" style="shape=partialRectangle;html=1;whiteSpace=wrap;connectable=0;overflow=hidden;fillColor=none;top=0;left=0;bottom=0;right=0;" parent="W8nmE6WbgOSF25TQNUTi-72" vertex="1"><mxGeometry x="420" width="30" height="36" as="geometry"/></mxCell><mxCell id="W8nmE6WbgOSF25TQNUTi-88" value="&lt;span&gt;25&lt;/span&gt;" style="shape=partialRectangle;html=1;whiteSpace=wrap;connectable=0;overflow=hidden;fillColor=none;top=0;left=0;bottom=0;right=0;" parent="W8nmE6WbgOSF25TQNUTi-72" vertex="1"><mxGeometry x="450" width="29" height="36" as="geometry"/></mxCell><mxCell id="W8nmE6WbgOSF25TQNUTi-89" value="&lt;span&gt;25&lt;/span&gt;" style="shape=partialRectangle;html=1;whiteSpace=wrap;connectable=0;overflow=hidden;fillColor=none;top=0;left=0;bottom=0;right=0;" parent="W8nmE6WbgOSF25TQNUTi-72" vertex="1"><mxGeometry x="479" width="32" height="36" as="geometry"/></mxCell><mxCell id="W8nmE6WbgOSF25TQNUTi-90" value="&lt;span&gt;25&lt;/span&gt;" style="shape=partialRectangle;html=1;whiteSpace=wrap;connectable=0;overflow=hidden;fillColor=none;top=0;left=0;bottom=0;right=0;" parent="W8nmE6WbgOSF25TQNUTi-72" vertex="1"><mxGeometry x="511" width="29" height="36" as="geometry"/></mxCell><mxCell id="W8nmE6WbgOSF25TQNUTi-91" value="&lt;span&gt;35&lt;/span&gt;" style="shape=partialRectangle;html=1;whiteSpace=wrap;connectable=0;overflow=hidden;fillColor=none;top=0;left=0;bottom=0;right=0;" parent="W8nmE6WbgOSF25TQNUTi-72" vertex="1"><mxGeometry x="540" width="30" height="36" as="geometry"/></mxCell><mxCell id="W8nmE6WbgOSF25TQNUTi-92" value="&lt;span&gt;35&lt;/span&gt;" style="shape=partialRectangle;html=1;whiteSpace=wrap;connectable=0;overflow=hidden;fillColor=none;top=0;left=0;bottom=0;right=0;" parent="W8nmE6WbgOSF25TQNUTi-72" vertex="1"><mxGeometry x="570" width="30" height="36" as="geometry"/></mxCell><mxCell id="W8nmE6WbgOSF25TQNUTi-93" value="&lt;span&gt;35&lt;/span&gt;" style="shape=partialRectangle;html=1;whiteSpace=wrap;connectable=0;overflow=hidden;fillColor=none;top=0;left=0;bottom=0;right=0;" parent="W8nmE6WbgOSF25TQNUTi-72" vertex="1"><mxGeometry x="600" width="30" height="36" as="geometry"/></mxCell><mxCell id="W8nmE6WbgOSF25TQNUTi-94" value="&lt;span&gt;35&lt;/span&gt;" style="shape=partialRectangle;html=1;whiteSpace=wrap;connectable=0;overflow=hidden;fillColor=none;top=0;left=0;bottom=0;right=0;" parent="W8nmE6WbgOSF25TQNUTi-72" vertex="1"><mxGeometry x="630" width="30" height="36" as="geometry"/></mxCell><mxCell id="W8nmE6WbgOSF25TQNUTi-95" value="" style="shape=partialRectangle;html=1;whiteSpace=wrap;collapsible=0;dropTarget=0;pointerEvents=0;fillColor=none;top=0;left=0;bottom=0;right=0;points=[[0,0.5],[1,0.5]];portConstraint=eastwest;" parent="W8nmE6WbgOSF25TQNUTi-2" vertex="1"><mxGeometry y="124" width="660" height="35" as="geometry"/></mxCell><mxCell id="W8nmE6WbgOSF25TQNUTi-96" value="3" style="shape=partialRectangle;html=1;whiteSpace=wrap;connectable=0;overflow=hidden;fillColor=#f5f5f5;top=0;left=0;bottom=0;right=0;strokeColor=#666666;fontColor=#333333;" parent="W8nmE6WbgOSF25TQNUTi-95" vertex="1"><mxGeometry width="30" height="35" as="geometry"/></mxCell><mxCell id="W8nmE6WbgOSF25TQNUTi-97" value="0" style="shape=partialRectangle;html=1;whiteSpace=wrap;connectable=0;overflow=hidden;fillColor=none;top=0;left=0;bottom=0;right=0;" parent="W8nmE6WbgOSF25TQNUTi-95" vertex="1"><mxGeometry x="30" width="30" height="35" as="geometry"/></mxCell><mxCell id="W8nmE6WbgOSF25TQNUTi-98" value="0" style="shape=partialRectangle;html=1;whiteSpace=wrap;connectable=0;overflow=hidden;fillColor=none;top=0;left=0;bottom=0;right=0;" parent="W8nmE6WbgOSF25TQNUTi-95" vertex="1"><mxGeometry x="60" width="30" height="35" as="geometry"/></mxCell><mxCell id="W8nmE6WbgOSF25TQNUTi-99" value="0" style="shape=partialRectangle;html=1;whiteSpace=wrap;connectable=0;overflow=hidden;fillColor=none;top=0;left=0;bottom=0;right=0;" parent="W8nmE6WbgOSF25TQNUTi-95" vertex="1"><mxGeometry x="90" width="30" height="35" as="geometry"/></mxCell><mxCell id="W8nmE6WbgOSF25TQNUTi-100" value="0" style="shape=partialRectangle;html=1;whiteSpace=wrap;connectable=0;overflow=hidden;fillColor=none;top=0;left=0;bottom=0;right=0;" parent="W8nmE6WbgOSF25TQNUTi-95" vertex="1"><mxGeometry x="120" width="29" height="35" as="geometry"/></mxCell><mxCell id="W8nmE6WbgOSF25TQNUTi-101" value="0" style="shape=partialRectangle;html=1;whiteSpace=wrap;connectable=0;overflow=hidden;fillColor=none;top=0;left=0;bottom=0;right=0;" parent="W8nmE6WbgOSF25TQNUTi-95" vertex="1"><mxGeometry x="149" width="32" height="35" as="geometry"/></mxCell><mxCell id="W8nmE6WbgOSF25TQNUTi-102" value="10" style="shape=partialRectangle;html=1;whiteSpace=wrap;connectable=0;overflow=hidden;fillColor=none;top=0;left=0;bottom=0;right=0;" parent="W8nmE6WbgOSF25TQNUTi-95" vertex="1"><mxGeometry x="181" width="29" height="35" as="geometry"/></mxCell><mxCell id="W8nmE6WbgOSF25TQNUTi-103" value="10" style="shape=partialRectangle;html=1;whiteSpace=wrap;connectable=0;overflow=hidden;fillColor=none;top=0;left=0;bottom=0;right=0;" parent="W8nmE6WbgOSF25TQNUTi-95" vertex="1"><mxGeometry x="210" width="30" height="35" as="geometry"/></mxCell><mxCell id="W8nmE6WbgOSF25TQNUTi-104" value="10" style="shape=partialRectangle;html=1;whiteSpace=wrap;connectable=0;overflow=hidden;fillColor=none;top=0;left=0;bottom=0;right=0;" parent="W8nmE6WbgOSF25TQNUTi-95" vertex="1"><mxGeometry x="240" width="30" height="35" as="geometry"/></mxCell><mxCell id="W8nmE6WbgOSF25TQNUTi-105" value="15" style="shape=partialRectangle;html=1;whiteSpace=wrap;connectable=0;overflow=hidden;fillColor=none;top=0;left=0;bottom=0;right=0;" parent="W8nmE6WbgOSF25TQNUTi-95" vertex="1"><mxGeometry x="270" width="30" height="35" as="geometry"/></mxCell><mxCell id="W8nmE6WbgOSF25TQNUTi-106" value="15" style="shape=partialRectangle;html=1;whiteSpace=wrap;connectable=0;overflow=hidden;fillColor=none;top=0;left=0;bottom=0;right=0;" parent="W8nmE6WbgOSF25TQNUTi-95" vertex="1"><mxGeometry x="300" width="30" height="35" as="geometry"/></mxCell><mxCell id="W8nmE6WbgOSF25TQNUTi-107" value="15" style="shape=partialRectangle;html=1;whiteSpace=wrap;connectable=0;overflow=hidden;fillColor=none;top=0;left=0;bottom=0;right=0;" parent="W8nmE6WbgOSF25TQNUTi-95" vertex="1"><mxGeometry x="330" width="30" height="35" as="geometry"/></mxCell><mxCell id="W8nmE6WbgOSF25TQNUTi-108" value="15" style="shape=partialRectangle;html=1;whiteSpace=wrap;connectable=0;overflow=hidden;fillColor=none;top=0;left=0;bottom=0;right=0;" parent="W8nmE6WbgOSF25TQNUTi-95" vertex="1"><mxGeometry x="360" width="30" height="35" as="geometry"/></mxCell><mxCell id="W8nmE6WbgOSF25TQNUTi-109" value="25" style="shape=partialRectangle;html=1;whiteSpace=wrap;connectable=0;overflow=hidden;fillColor=none;top=0;left=0;bottom=0;right=0;" parent="W8nmE6WbgOSF25TQNUTi-95" vertex="1"><mxGeometry x="390" width="30" height="35" as="geometry"/></mxCell><mxCell id="W8nmE6WbgOSF25TQNUTi-110" value="25" style="shape=partialRectangle;html=1;whiteSpace=wrap;connectable=0;overflow=hidden;fillColor=none;top=0;left=0;bottom=0;right=0;" parent="W8nmE6WbgOSF25TQNUTi-95" vertex="1"><mxGeometry x="420" width="30" height="35" as="geometry"/></mxCell><mxCell id="W8nmE6WbgOSF25TQNUTi-111" value="25" style="shape=partialRectangle;html=1;whiteSpace=wrap;connectable=0;overflow=hidden;fillColor=none;top=0;left=0;bottom=0;right=0;" parent="W8nmE6WbgOSF25TQNUTi-95" vertex="1"><mxGeometry x="450" width="29" height="35" as="geometry"/></mxCell><mxCell id="W8nmE6WbgOSF25TQNUTi-112" value="25" style="shape=partialRectangle;html=1;whiteSpace=wrap;connectable=0;overflow=hidden;fillColor=none;top=0;left=0;bottom=0;right=0;" parent="W8nmE6WbgOSF25TQNUTi-95" vertex="1"><mxGeometry x="479" width="32" height="35" as="geometry"/></mxCell><mxCell id="W8nmE6WbgOSF25TQNUTi-113" value="25" style="shape=partialRectangle;html=1;whiteSpace=wrap;connectable=0;overflow=hidden;fillColor=none;top=0;left=0;bottom=0;right=0;" parent="W8nmE6WbgOSF25TQNUTi-95" vertex="1"><mxGeometry x="511" width="29" height="35" as="geometry"/></mxCell><mxCell id="W8nmE6WbgOSF25TQNUTi-114" value="35" style="shape=partialRectangle;html=1;whiteSpace=wrap;connectable=0;overflow=hidden;fillColor=none;top=0;left=0;bottom=0;right=0;" parent="W8nmE6WbgOSF25TQNUTi-95" vertex="1"><mxGeometry x="540" width="30" height="35" as="geometry"/></mxCell><mxCell id="W8nmE6WbgOSF25TQNUTi-115" value="35" style="shape=partialRectangle;html=1;whiteSpace=wrap;connectable=0;overflow=hidden;fillColor=none;top=0;left=0;bottom=0;right=0;" parent="W8nmE6WbgOSF25TQNUTi-95" vertex="1"><mxGeometry x="570" width="30" height="35" as="geometry"/></mxCell><mxCell id="W8nmE6WbgOSF25TQNUTi-116" value="35" style="shape=partialRectangle;html=1;whiteSpace=wrap;connectable=0;overflow=hidden;fillColor=none;top=0;left=0;bottom=0;right=0;" parent="W8nmE6WbgOSF25TQNUTi-95" vertex="1"><mxGeometry x="600" width="30" height="35" as="geometry"/></mxCell><mxCell id="W8nmE6WbgOSF25TQNUTi-117" value="40" style="shape=partialRectangle;html=1;whiteSpace=wrap;connectable=0;overflow=hidden;fillColor=none;top=0;left=0;bottom=0;right=0;" parent="W8nmE6WbgOSF25TQNUTi-95" vertex="1"><mxGeometry x="630" width="30" height="35" as="geometry"/></mxCell><mxCell id="W8nmE6WbgOSF25TQNUTi-118" value="" style="shape=partialRectangle;html=1;whiteSpace=wrap;collapsible=0;dropTarget=0;pointerEvents=0;fillColor=none;top=0;left=0;bottom=0;right=0;points=[[0,0.5],[1,0.5]];portConstraint=eastwest;" parent="W8nmE6WbgOSF25TQNUTi-2" vertex="1"><mxGeometry y="159" width="660" height="36" as="geometry"/></mxCell><mxCell id="W8nmE6WbgOSF25TQNUTi-119" value="4" style="shape=partialRectangle;html=1;whiteSpace=wrap;connectable=0;overflow=hidden;fillColor=#f5f5f5;top=0;left=0;bottom=0;right=0;strokeColor=#666666;fontColor=#333333;" parent="W8nmE6WbgOSF25TQNUTi-118" vertex="1"><mxGeometry width="30" height="36" as="geometry"/></mxCell><mxCell id="W8nmE6WbgOSF25TQNUTi-120" value="0" style="shape=partialRectangle;html=1;whiteSpace=wrap;connectable=0;overflow=hidden;fillColor=none;top=0;left=0;bottom=0;right=0;" parent="W8nmE6WbgOSF25TQNUTi-118" vertex="1"><mxGeometry x="30" width="30" height="36" as="geometry"/></mxCell><mxCell id="W8nmE6WbgOSF25TQNUTi-121" value="0" style="shape=partialRectangle;html=1;whiteSpace=wrap;connectable=0;overflow=hidden;fillColor=none;top=0;left=0;bottom=0;right=0;" parent="W8nmE6WbgOSF25TQNUTi-118" vertex="1"><mxGeometry x="60" width="30" height="36" as="geometry"/></mxCell><mxCell id="W8nmE6WbgOSF25TQNUTi-122" value="0" style="shape=partialRectangle;html=1;whiteSpace=wrap;connectable=0;overflow=hidden;fillColor=none;top=0;left=0;bottom=0;right=0;" parent="W8nmE6WbgOSF25TQNUTi-118" vertex="1"><mxGeometry x="90" width="30" height="36" as="geometry"/></mxCell><mxCell id="W8nmE6WbgOSF25TQNUTi-123" value="6" style="shape=partialRectangle;html=1;whiteSpace=wrap;connectable=0;overflow=hidden;fillColor=none;top=0;left=0;bottom=0;right=0;" parent="W8nmE6WbgOSF25TQNUTi-118" vertex="1"><mxGeometry x="120" width="29" height="36" as="geometry"/></mxCell><mxCell id="W8nmE6WbgOSF25TQNUTi-124" value="6" style="shape=partialRectangle;html=1;whiteSpace=wrap;connectable=0;overflow=hidden;fillColor=none;top=0;left=0;bottom=0;right=0;" parent="W8nmE6WbgOSF25TQNUTi-118" vertex="1"><mxGeometry x="149" width="32" height="36" as="geometry"/></mxCell><mxCell id="W8nmE6WbgOSF25TQNUTi-125" value="10" style="shape=partialRectangle;html=1;whiteSpace=wrap;connectable=0;overflow=hidden;fillColor=none;top=0;left=0;bottom=0;right=0;" parent="W8nmE6WbgOSF25TQNUTi-118" vertex="1"><mxGeometry x="181" width="29" height="36" as="geometry"/></mxCell><mxCell id="W8nmE6WbgOSF25TQNUTi-126" value="10" style="shape=partialRectangle;html=1;whiteSpace=wrap;connectable=0;overflow=hidden;fillColor=none;top=0;left=0;bottom=0;right=0;" parent="W8nmE6WbgOSF25TQNUTi-118" vertex="1"><mxGeometry x="210" width="30" height="36" as="geometry"/></mxCell><mxCell id="W8nmE6WbgOSF25TQNUTi-127" value="&lt;span&gt;10&lt;/span&gt;" style="shape=partialRectangle;html=1;whiteSpace=wrap;connectable=0;overflow=hidden;fillColor=none;top=0;left=0;bottom=0;right=0;" parent="W8nmE6WbgOSF25TQNUTi-118" vertex="1"><mxGeometry x="240" width="30" height="36" as="geometry"/></mxCell><mxCell id="W8nmE6WbgOSF25TQNUTi-128" value="15" style="shape=partialRectangle;html=1;whiteSpace=wrap;connectable=0;overflow=hidden;fillColor=none;top=0;left=0;bottom=0;right=0;" parent="W8nmE6WbgOSF25TQNUTi-118" vertex="1"><mxGeometry x="270" width="30" height="36" as="geometry"/></mxCell><mxCell id="W8nmE6WbgOSF25TQNUTi-129" value="&lt;span&gt;15&lt;/span&gt;" style="shape=partialRectangle;html=1;whiteSpace=wrap;connectable=0;overflow=hidden;fillColor=none;top=0;left=0;bottom=0;right=0;" parent="W8nmE6WbgOSF25TQNUTi-118" vertex="1"><mxGeometry x="300" width="30" height="36" as="geometry"/></mxCell><mxCell id="W8nmE6WbgOSF25TQNUTi-130" value="&lt;span&gt;15&lt;/span&gt;" style="shape=partialRectangle;html=1;whiteSpace=wrap;connectable=0;overflow=hidden;fillColor=none;top=0;left=0;bottom=0;right=0;" parent="W8nmE6WbgOSF25TQNUTi-118" vertex="1"><mxGeometry x="330" width="30" height="36" as="geometry"/></mxCell><mxCell id="W8nmE6WbgOSF25TQNUTi-131" value="&lt;span&gt;15&lt;/span&gt;" style="shape=partialRectangle;html=1;whiteSpace=wrap;connectable=0;overflow=hidden;fillColor=none;top=0;left=0;bottom=0;right=0;" parent="W8nmE6WbgOSF25TQNUTi-118" vertex="1"><mxGeometry x="360" width="30" height="36" as="geometry"/></mxCell><mxCell id="W8nmE6WbgOSF25TQNUTi-132" value="25" style="shape=partialRectangle;html=1;whiteSpace=wrap;connectable=0;overflow=hidden;fillColor=none;top=0;left=0;bottom=0;right=0;" parent="W8nmE6WbgOSF25TQNUTi-118" vertex="1"><mxGeometry x="390" width="30" height="36" as="geometry"/></mxCell><mxCell id="W8nmE6WbgOSF25TQNUTi-133" value="&lt;span&gt;25&lt;/span&gt;" style="shape=partialRectangle;html=1;whiteSpace=wrap;connectable=0;overflow=hidden;fillColor=none;top=0;left=0;bottom=0;right=0;" parent="W8nmE6WbgOSF25TQNUTi-118" vertex="1"><mxGeometry x="420" width="30" height="36" as="geometry"/></mxCell><mxCell id="W8nmE6WbgOSF25TQNUTi-134" value="&lt;span&gt;25&lt;/span&gt;" style="shape=partialRectangle;html=1;whiteSpace=wrap;connectable=0;overflow=hidden;fillColor=none;top=0;left=0;bottom=0;right=0;" parent="W8nmE6WbgOSF25TQNUTi-118" vertex="1"><mxGeometry x="450" width="29" height="36" as="geometry"/></mxCell><mxCell id="W8nmE6WbgOSF25TQNUTi-135" value="&lt;span&gt;25&lt;/span&gt;" style="shape=partialRectangle;html=1;whiteSpace=wrap;connectable=0;overflow=hidden;fillColor=none;top=0;left=0;bottom=0;right=0;" parent="W8nmE6WbgOSF25TQNUTi-118" vertex="1"><mxGeometry x="479" width="32" height="36" as="geometry"/></mxCell><mxCell id="W8nmE6WbgOSF25TQNUTi-136" value="&lt;span&gt;25&lt;/span&gt;" style="shape=partialRectangle;html=1;whiteSpace=wrap;connectable=0;overflow=hidden;fillColor=none;top=0;left=0;bottom=0;right=0;" parent="W8nmE6WbgOSF25TQNUTi-118" vertex="1"><mxGeometry x="511" width="29" height="36" as="geometry"/></mxCell><mxCell id="W8nmE6WbgOSF25TQNUTi-137" value="&lt;span&gt;35&lt;/span&gt;" style="shape=partialRectangle;html=1;whiteSpace=wrap;connectable=0;overflow=hidden;fillColor=none;top=0;left=0;bottom=0;right=0;" parent="W8nmE6WbgOSF25TQNUTi-118" vertex="1"><mxGeometry x="540" width="30" height="36" as="geometry"/></mxCell><mxCell id="W8nmE6WbgOSF25TQNUTi-138" value="&lt;span&gt;35&lt;/span&gt;" style="shape=partialRectangle;html=1;whiteSpace=wrap;connectable=0;overflow=hidden;fillColor=none;top=0;left=0;bottom=0;right=0;" parent="W8nmE6WbgOSF25TQNUTi-118" vertex="1"><mxGeometry x="570" width="30" height="36" as="geometry"/></mxCell><mxCell id="W8nmE6WbgOSF25TQNUTi-139" value="&lt;span&gt;35&lt;/span&gt;" style="shape=partialRectangle;html=1;whiteSpace=wrap;connectable=0;overflow=hidden;fillColor=none;top=0;left=0;bottom=0;right=0;" parent="W8nmE6WbgOSF25TQNUTi-118" vertex="1"><mxGeometry x="600" width="30" height="36" as="geometry"/></mxCell><mxCell id="W8nmE6WbgOSF25TQNUTi-140" value="40" style="shape=partialRectangle;html=1;whiteSpace=wrap;connectable=0;overflow=hidden;fillColor=none;top=0;left=0;bottom=0;right=0;" parent="W8nmE6WbgOSF25TQNUTi-118" vertex="1"><mxGeometry x="630" width="30" height="36" as="geometry"/></mxCell><mxCell id="W8nmE6WbgOSF25TQNUTi-141" value="" style="shape=partialRectangle;html=1;whiteSpace=wrap;collapsible=0;dropTarget=0;pointerEvents=0;fillColor=none;top=0;left=0;bottom=0;right=0;points=[[0,0.5],[1,0.5]];portConstraint=eastwest;" parent="W8nmE6WbgOSF25TQNUTi-2" vertex="1"><mxGeometry y="195" width="660" height="35" as="geometry"/></mxCell><mxCell id="W8nmE6WbgOSF25TQNUTi-142" value="5" style="shape=partialRectangle;html=1;whiteSpace=wrap;connectable=0;overflow=hidden;fillColor=#f5f5f5;top=0;left=0;bottom=0;right=0;strokeColor=#666666;fontColor=#333333;" parent="W8nmE6WbgOSF25TQNUTi-141" vertex="1"><mxGeometry width="30" height="35" as="geometry"/></mxCell><mxCell id="W8nmE6WbgOSF25TQNUTi-143" value="" style="shape=partialRectangle;html=1;whiteSpace=wrap;connectable=0;overflow=hidden;fillColor=none;top=0;left=0;bottom=0;right=0;" parent="W8nmE6WbgOSF25TQNUTi-141" vertex="1"><mxGeometry x="30" width="30" height="35" as="geometry"/></mxCell><mxCell id="W8nmE6WbgOSF25TQNUTi-144" value="" style="shape=partialRectangle;html=1;whiteSpace=wrap;connectable=0;overflow=hidden;fillColor=none;top=0;left=0;bottom=0;right=0;" parent="W8nmE6WbgOSF25TQNUTi-141" vertex="1"><mxGeometry x="60" width="30" height="35" as="geometry"/></mxCell><mxCell id="W8nmE6WbgOSF25TQNUTi-145" value="" style="shape=partialRectangle;html=1;whiteSpace=wrap;connectable=0;overflow=hidden;fillColor=none;top=0;left=0;bottom=0;right=0;" parent="W8nmE6WbgOSF25TQNUTi-141" vertex="1"><mxGeometry x="90" width="30" height="35" as="geometry"/></mxCell><mxCell id="W8nmE6WbgOSF25TQNUTi-146" value="" style="shape=partialRectangle;html=1;whiteSpace=wrap;connectable=0;overflow=hidden;fillColor=none;top=0;left=0;bottom=0;right=0;" parent="W8nmE6WbgOSF25TQNUTi-141" vertex="1"><mxGeometry x="120" width="29" height="35" as="geometry"/></mxCell><mxCell id="W8nmE6WbgOSF25TQNUTi-147" value="" style="shape=partialRectangle;html=1;whiteSpace=wrap;connectable=0;overflow=hidden;fillColor=none;top=0;left=0;bottom=0;right=0;" parent="W8nmE6WbgOSF25TQNUTi-141" vertex="1"><mxGeometry x="149" width="32" height="35" as="geometry"/></mxCell><mxCell id="W8nmE6WbgOSF25TQNUTi-148" value="" style="shape=partialRectangle;html=1;whiteSpace=wrap;connectable=0;overflow=hidden;fillColor=none;top=0;left=0;bottom=0;right=0;" parent="W8nmE6WbgOSF25TQNUTi-141" vertex="1"><mxGeometry x="181" width="29" height="35" as="geometry"/></mxCell><mxCell id="W8nmE6WbgOSF25TQNUTi-149" value="" style="shape=partialRectangle;html=1;whiteSpace=wrap;connectable=0;overflow=hidden;fillColor=none;top=0;left=0;bottom=0;right=0;" parent="W8nmE6WbgOSF25TQNUTi-141" vertex="1"><mxGeometry x="210" width="30" height="35" as="geometry"/></mxCell><mxCell id="W8nmE6WbgOSF25TQNUTi-150" value="" style="shape=partialRectangle;html=1;whiteSpace=wrap;connectable=0;overflow=hidden;fillColor=none;top=0;left=0;bottom=0;right=0;" parent="W8nmE6WbgOSF25TQNUTi-141" vertex="1"><mxGeometry x="240" width="30" height="35" as="geometry"/></mxCell><mxCell id="W8nmE6WbgOSF25TQNUTi-151" value="" style="shape=partialRectangle;html=1;whiteSpace=wrap;connectable=0;overflow=hidden;fillColor=none;top=0;left=0;bottom=0;right=0;" parent="W8nmE6WbgOSF25TQNUTi-141" vertex="1"><mxGeometry x="270" width="30" height="35" as="geometry"/></mxCell><mxCell id="W8nmE6WbgOSF25TQNUTi-152" value="" style="shape=partialRectangle;html=1;whiteSpace=wrap;connectable=0;overflow=hidden;fillColor=none;top=0;left=0;bottom=0;right=0;" parent="W8nmE6WbgOSF25TQNUTi-141" vertex="1"><mxGeometry x="300" width="30" height="35" as="geometry"/></mxCell><mxCell id="W8nmE6WbgOSF25TQNUTi-153" value="" style="shape=partialRectangle;html=1;whiteSpace=wrap;connectable=0;overflow=hidden;fillColor=none;top=0;left=0;bottom=0;right=0;" parent="W8nmE6WbgOSF25TQNUTi-141" vertex="1"><mxGeometry x="330" width="30" height="35" as="geometry"/></mxCell><mxCell id="W8nmE6WbgOSF25TQNUTi-154" value="" style="shape=partialRectangle;html=1;whiteSpace=wrap;connectable=0;overflow=hidden;fillColor=none;top=0;left=0;bottom=0;right=0;" parent="W8nmE6WbgOSF25TQNUTi-141" vertex="1"><mxGeometry x="360" width="30" height="35" as="geometry"/></mxCell><mxCell id="W8nmE6WbgOSF25TQNUTi-155" value="" style="shape=partialRectangle;html=1;whiteSpace=wrap;connectable=0;overflow=hidden;fillColor=none;top=0;left=0;bottom=0;right=0;" parent="W8nmE6WbgOSF25TQNUTi-141" vertex="1"><mxGeometry x="390" width="30" height="35" as="geometry"/></mxCell><mxCell id="W8nmE6WbgOSF25TQNUTi-156" value="" style="shape=partialRectangle;html=1;whiteSpace=wrap;connectable=0;overflow=hidden;fillColor=none;top=0;left=0;bottom=0;right=0;" parent="W8nmE6WbgOSF25TQNUTi-141" vertex="1"><mxGeometry x="420" width="30" height="35" as="geometry"/></mxCell><mxCell id="W8nmE6WbgOSF25TQNUTi-157" value="" style="shape=partialRectangle;html=1;whiteSpace=wrap;connectable=0;overflow=hidden;fillColor=none;top=0;left=0;bottom=0;right=0;" parent="W8nmE6WbgOSF25TQNUTi-141" vertex="1"><mxGeometry x="450" width="29" height="35" as="geometry"/></mxCell><mxCell id="W8nmE6WbgOSF25TQNUTi-158" value="" style="shape=partialRectangle;html=1;whiteSpace=wrap;connectable=0;overflow=hidden;fillColor=none;top=0;left=0;bottom=0;right=0;" parent="W8nmE6WbgOSF25TQNUTi-141" vertex="1"><mxGeometry x="479" width="32" height="35" as="geometry"/></mxCell><mxCell id="W8nmE6WbgOSF25TQNUTi-159" value="" style="shape=partialRectangle;html=1;whiteSpace=wrap;connectable=0;overflow=hidden;fillColor=none;top=0;left=0;bottom=0;right=0;" parent="W8nmE6WbgOSF25TQNUTi-141" vertex="1"><mxGeometry x="511" width="29" height="35" as="geometry"/></mxCell><mxCell id="W8nmE6WbgOSF25TQNUTi-160" value="" style="shape=partialRectangle;html=1;whiteSpace=wrap;connectable=0;overflow=hidden;fillColor=none;top=0;left=0;bottom=0;right=0;" parent="W8nmE6WbgOSF25TQNUTi-141" vertex="1"><mxGeometry x="540" width="30" height="35" as="geometry"/></mxCell><mxCell id="W8nmE6WbgOSF25TQNUTi-161" value="" style="shape=partialRectangle;html=1;whiteSpace=wrap;connectable=0;overflow=hidden;fillColor=none;top=0;left=0;bottom=0;right=0;" parent="W8nmE6WbgOSF25TQNUTi-141" vertex="1"><mxGeometry x="570" width="30" height="35" as="geometry"/></mxCell><mxCell id="W8nmE6WbgOSF25TQNUTi-162" value="" style="shape=partialRectangle;html=1;whiteSpace=wrap;connectable=0;overflow=hidden;fillColor=none;top=0;left=0;bottom=0;right=0;" parent="W8nmE6WbgOSF25TQNUTi-141" vertex="1"><mxGeometry x="600" width="30" height="35" as="geometry"/></mxCell><mxCell id="W8nmE6WbgOSF25TQNUTi-163" style="shape=partialRectangle;html=1;whiteSpace=wrap;connectable=0;overflow=hidden;fillColor=none;top=0;left=0;bottom=0;right=0;" parent="W8nmE6WbgOSF25TQNUTi-141" vertex="1"><mxGeometry x="630" width="30" height="35" as="geometry"/></mxCell><mxCell id="W8nmE6WbgOSF25TQNUTi-164" style="edgeStyle=orthogonalEdgeStyle;rounded=0;orthogonalLoop=1;jettySize=auto;html=1;" parent="1" source="W8nmE6WbgOSF25TQNUTi-165" edge="1"><mxGeometry relative="1" as="geometry"><mxPoint x="1020" y="550" as="targetPoint"/></mxGeometry></mxCell><mxCell id="W8nmE6WbgOSF25TQNUTi-165" value="&lt;p&gt;&lt;font face=&quot;Lucida Console&quot;&gt;dy[i][j] : i번째 문제를 풀 때 j분 동안 얻을 수 있는 최대점수&lt;/font&gt;&lt;/p&gt;" style="text;html=1;align=center;verticalAlign=middle;resizable=0;points=[];autosize=1;strokeColor=none;" parent="1" vertex="1"><mxGeometry x="570" y="530" width="400" height="40" as="geometry"/></mxCell><mxCell id="W8nmE6WbgOSF25TQNUTi-166" value="중복 허용하지 않으므로 2차원 배열로" style="text;html=1;align=center;verticalAlign=middle;resizable=0;points=[];autosize=1;strokeColor=none;" parent="1" vertex="1"><mxGeometry x="1035" y="540" width="220" height="20" as="geometry"/></mxCell><mxCell id="W8nmE6WbgOSF25TQNUTi-167" value="" style="shape=table;html=1;whiteSpace=wrap;startSize=0;container=1;collapsible=0;childLayout=tableLayout;" parent="1" vertex="1"><mxGeometry x="775" y="420" width="300" height="80" as="geometry"/></mxCell><mxCell id="W8nmE6WbgOSF25TQNUTi-168" value="" style="shape=partialRectangle;html=1;whiteSpace=wrap;collapsible=0;dropTarget=0;pointerEvents=0;fillColor=none;top=0;left=0;bottom=0;right=0;points=[[0,0.5],[1,0.5]];portConstraint=eastwest;" parent="W8nmE6WbgOSF25TQNUTi-167" vertex="1"><mxGeometry width="300" height="40" as="geometry"/></mxCell><mxCell id="W8nmE6WbgOSF25TQNUTi-169" value="10" style="shape=partialRectangle;html=1;whiteSpace=wrap;connectable=0;overflow=hidden;fillColor=none;top=0;left=0;bottom=0;right=0;" parent="W8nmE6WbgOSF25TQNUTi-168" vertex="1"><mxGeometry width="60" height="40" as="geometry"/></mxCell><mxCell id="W8nmE6WbgOSF25TQNUTi-170" value="25" style="shape=partialRectangle;html=1;whiteSpace=wrap;connectable=0;overflow=hidden;fillColor=none;top=0;left=0;bottom=0;right=0;" parent="W8nmE6WbgOSF25TQNUTi-168" vertex="1"><mxGeometry x="60" width="60" height="40" as="geometry"/></mxCell><mxCell id="W8nmE6WbgOSF25TQNUTi-171" value="15" style="shape=partialRectangle;html=1;whiteSpace=wrap;connectable=0;overflow=hidden;fillColor=none;top=0;left=0;bottom=0;right=0;" parent="W8nmE6WbgOSF25TQNUTi-168" vertex="1"><mxGeometry x="120" width="60" height="40" as="geometry"/></mxCell><mxCell id="W8nmE6WbgOSF25TQNUTi-172" value="6" style="shape=partialRectangle;html=1;whiteSpace=wrap;connectable=0;overflow=hidden;fillColor=none;top=0;left=0;bottom=0;right=0;" parent="W8nmE6WbgOSF25TQNUTi-168" vertex="1"><mxGeometry x="180" width="60" height="40" as="geometry"/></mxCell><mxCell id="W8nmE6WbgOSF25TQNUTi-173" value="7" style="shape=partialRectangle;html=1;whiteSpace=wrap;connectable=0;overflow=hidden;fillColor=none;top=0;left=0;bottom=0;right=0;" parent="W8nmE6WbgOSF25TQNUTi-168" vertex="1"><mxGeometry x="240" width="60" height="40" as="geometry"/></mxCell><mxCell id="W8nmE6WbgOSF25TQNUTi-174" value="" style="shape=partialRectangle;html=1;whiteSpace=wrap;collapsible=0;dropTarget=0;pointerEvents=0;fillColor=none;top=0;left=0;bottom=0;right=0;points=[[0,0.5],[1,0.5]];portConstraint=eastwest;" parent="W8nmE6WbgOSF25TQNUTi-167" vertex="1"><mxGeometry y="40" width="300" height="40" as="geometry"/></mxCell><mxCell id="W8nmE6WbgOSF25TQNUTi-175" value="5" style="shape=partialRectangle;html=1;whiteSpace=wrap;connectable=0;overflow=hidden;fillColor=none;top=0;left=0;bottom=0;right=0;" parent="W8nmE6WbgOSF25TQNUTi-174" vertex="1"><mxGeometry width="60" height="40" as="geometry"/></mxCell><mxCell id="W8nmE6WbgOSF25TQNUTi-176" value="12" style="shape=partialRectangle;html=1;whiteSpace=wrap;connectable=0;overflow=hidden;fillColor=none;top=0;left=0;bottom=0;right=0;" parent="W8nmE6WbgOSF25TQNUTi-174" vertex="1"><mxGeometry x="60" width="60" height="40" as="geometry"/></mxCell><mxCell id="W8nmE6WbgOSF25TQNUTi-177" value="8" style="shape=partialRectangle;html=1;whiteSpace=wrap;connectable=0;overflow=hidden;fillColor=none;top=0;left=0;bottom=0;right=0;" parent="W8nmE6WbgOSF25TQNUTi-174" vertex="1"><mxGeometry x="120" width="60" height="40" as="geometry"/></mxCell><mxCell id="W8nmE6WbgOSF25TQNUTi-178" value="3" style="shape=partialRectangle;html=1;whiteSpace=wrap;connectable=0;overflow=hidden;fillColor=none;top=0;left=0;bottom=0;right=0;" parent="W8nmE6WbgOSF25TQNUTi-174" vertex="1"><mxGeometry x="180" width="60" height="40" as="geometry"/></mxCell><mxCell id="W8nmE6WbgOSF25TQNUTi-179" value="4" style="shape=partialRectangle;html=1;whiteSpace=wrap;connectable=0;overflow=hidden;fillColor=none;top=0;left=0;bottom=0;right=0;" parent="W8nmE6WbgOSF25TQNUTi-174" vertex="1"><mxGeometry x="240" width="60" height="40" as="geometry"/></mxCell><mxCell id="W8nmE6WbgOSF25TQNUTi-180" value="0" style="text;html=1;align=center;verticalAlign=middle;resizable=0;points=[];autosize=1;strokeColor=none;" parent="1" vertex="1"><mxGeometry x="795" y="400" width="20" height="20" as="geometry"/></mxCell><mxCell id="W8nmE6WbgOSF25TQNUTi-181" value="2" style="text;html=1;align=center;verticalAlign=middle;resizable=0;points=[];autosize=1;strokeColor=none;" parent="1" vertex="1"><mxGeometry x="915" y="400" width="20" height="20" as="geometry"/></mxCell><mxCell id="W8nmE6WbgOSF25TQNUTi-182" value="4" style="text;html=1;align=center;verticalAlign=middle;resizable=0;points=[];autosize=1;strokeColor=none;" parent="1" vertex="1"><mxGeometry x="1035" y="400" width="20" height="20" as="geometry"/></mxCell><mxCell id="W8nmE6WbgOSF25TQNUTi-183" value="3" style="text;html=1;align=center;verticalAlign=middle;resizable=0;points=[];autosize=1;strokeColor=none;" parent="1" vertex="1"><mxGeometry x="975" y="400" width="20" height="20" as="geometry"/></mxCell><mxCell id="W8nmE6WbgOSF25TQNUTi-184" value="1" style="text;html=1;align=center;verticalAlign=middle;resizable=0;points=[];autosize=1;strokeColor=none;" parent="1" vertex="1"><mxGeometry x="855" y="400" width="20" height="20" as="geometry"/></mxCell><mxCell id="W8nmE6WbgOSF25TQNUTi-185" value="ps" style="text;html=1;align=center;verticalAlign=middle;resizable=0;points=[];autosize=1;strokeColor=none;" parent="1" vertex="1"><mxGeometry x="730" y="430" width="30" height="20" as="geometry"/></mxCell><mxCell id="W8nmE6WbgOSF25TQNUTi-186" value="pt" style="text;html=1;align=center;verticalAlign=middle;resizable=0;points=[];autosize=1;strokeColor=none;" parent="1" vertex="1"><mxGeometry x="730" y="470" width="30" height="20" as="geometry"/></mxCell><mxCell id="W8nmE6WbgOSF25TQNUTi-187" value="&lt;font face=&quot;Lucida Console&quot;&gt;dy[i-1][j-pt]&lt;/font&gt;" style="text;html=1;align=center;verticalAlign=middle;resizable=0;points=[];autosize=1;strokeColor=none;" parent="1" vertex="1"><mxGeometry x="885" y="580" width="110" height="20" as="geometry"/></mxCell><mxCell id="W8nmE6WbgOSF25TQNUTi-188" value="" style="endArrow=classic;html=1;" parent="1" edge="1"><mxGeometry width="50" height="50" relative="1" as="geometry"><mxPoint x="550" y="620" as="sourcePoint"/><mxPoint x="550" y="680" as="targetPoint"/></mxGeometry></mxCell><mxCell id="W8nmE6WbgOSF25TQNUTi-189" value="i" style="text;html=1;align=center;verticalAlign=middle;resizable=0;points=[];autosize=1;strokeColor=none;" parent="1" vertex="1"><mxGeometry x="520" y="630" width="20" height="20" as="geometry"/></mxCell><mxCell id="W8nmE6WbgOSF25TQNUTi-190" value="" style="endArrow=classic;html=1;" parent="1" edge="1"><mxGeometry width="50" height="50" relative="1" as="geometry"><mxPoint x="580" y="590" as="sourcePoint"/><mxPoint x="650" y="590" as="targetPoint"/></mxGeometry></mxCell><mxCell id="W8nmE6WbgOSF25TQNUTi-191" value="j" style="text;html=1;align=center;verticalAlign=middle;resizable=0;points=[];autosize=1;strokeColor=none;" parent="1" vertex="1"><mxGeometry x="610" y="570" width="20" height="20" as="geometry"/></mxCell><mxCell id="W8nmE6WbgOSF25TQNUTi-192" value="" style="shape=flexArrow;endArrow=classic;html=1;" parent="1" edge="1"><mxGeometry width="50" height="50" relative="1" as="geometry"><mxPoint x="805" y="330" as="sourcePoint"/><mxPoint x="805" y="390" as="targetPoint"/><Array as="points"><mxPoint x="805" y="370"/></Array></mxGeometry></mxCell><mxCell id="W8nmE6WbgOSF25TQNUTi-193" value="(1)" style="text;html=1;align=center;verticalAlign=middle;resizable=0;points=[];autosize=1;strokeColor=none;" parent="1" vertex="1"><mxGeometry x="790" y="300" width="30" height="20" as="geometry"/></mxCell><mxCell id="W8nmE6WbgOSF25TQNUTi-194" value="" style="endArrow=classic;html=1;" parent="1" edge="1"><mxGeometry width="50" height="50" relative="1" as="geometry"><mxPoint x="760" y="680" as="sourcePoint"/><mxPoint x="1250" y="680" as="targetPoint"/></mxGeometry></mxCell><mxCell id="W8nmE6WbgOSF25TQNUTi-195" value="" style="endArrow=classic;html=1;" parent="1" edge="1"><mxGeometry width="50" height="50" relative="1" as="geometry"><mxPoint x="963" y="717" as="sourcePoint"/><mxPoint x="1250" y="717" as="targetPoint"/></mxGeometry></mxCell><mxCell id="W8nmE6WbgOSF25TQNUTi-196" value="" style="endArrow=classic;html=1;" parent="1" edge="1"><mxGeometry width="50" height="50" relative="1" as="geometry"><mxPoint x="850" y="750" as="sourcePoint"/><mxPoint x="1250" y="750" as="targetPoint"/></mxGeometry></mxCell><mxCell id="W8nmE6WbgOSF25TQNUTi-197" value="" style="endArrow=classic;html=1;" parent="1" edge="1"><mxGeometry width="50" height="50" relative="1" as="geometry"><mxPoint x="695" y="785" as="sourcePoint"/><mxPoint x="1250" y="785" as="targetPoint"/></mxGeometry></mxCell><mxCell id="W8nmE6WbgOSF25TQNUTi-198" value="" style="shape=table;html=1;whiteSpace=wrap;startSize=0;container=1;collapsible=0;childLayout=tableLayout;" parent="1" vertex="1"><mxGeometry x="560" y="930" width="703" height="50" as="geometry"/></mxCell><mxCell id="W8nmE6WbgOSF25TQNUTi-199" value="" style="shape=partialRectangle;html=1;whiteSpace=wrap;collapsible=0;dropTarget=0;pointerEvents=0;fillColor=none;top=0;left=0;bottom=0;right=0;points=[[0,0.5],[1,0.5]];portConstraint=eastwest;" parent="W8nmE6WbgOSF25TQNUTi-198" vertex="1"><mxGeometry width="703" height="20" as="geometry"/></mxCell><mxCell id="W8nmE6WbgOSF25TQNUTi-200" value="0" style="shape=partialRectangle;html=1;whiteSpace=wrap;connectable=0;overflow=hidden;fillColor=#f5f5f5;top=0;left=0;bottom=0;right=0;strokeColor=#666666;fontColor=#333333;" parent="W8nmE6WbgOSF25TQNUTi-199" vertex="1"><mxGeometry width="34" height="20" as="geometry"/></mxCell><mxCell id="W8nmE6WbgOSF25TQNUTi-201" value="1" style="shape=partialRectangle;html=1;whiteSpace=wrap;connectable=0;overflow=hidden;fillColor=#f5f5f5;top=0;left=0;bottom=0;right=0;strokeColor=#666666;fontColor=#333333;" parent="W8nmE6WbgOSF25TQNUTi-199" vertex="1"><mxGeometry x="34" width="33" height="20" as="geometry"/></mxCell><mxCell id="W8nmE6WbgOSF25TQNUTi-202" value="2" style="shape=partialRectangle;html=1;whiteSpace=wrap;connectable=0;overflow=hidden;fillColor=#f5f5f5;top=0;left=0;bottom=0;right=0;strokeColor=#666666;fontColor=#333333;" parent="W8nmE6WbgOSF25TQNUTi-199" vertex="1"><mxGeometry x="67" width="34" height="20" as="geometry"/></mxCell><mxCell id="W8nmE6WbgOSF25TQNUTi-203" value="3" style="shape=partialRectangle;html=1;whiteSpace=wrap;connectable=0;overflow=hidden;fillColor=#f5f5f5;top=0;left=0;bottom=0;right=0;strokeColor=#666666;fontColor=#333333;" parent="W8nmE6WbgOSF25TQNUTi-199" vertex="1"><mxGeometry x="101" width="33" height="20" as="geometry"/></mxCell><mxCell id="W8nmE6WbgOSF25TQNUTi-204" value="4" style="shape=partialRectangle;html=1;whiteSpace=wrap;connectable=0;overflow=hidden;fillColor=#f5f5f5;top=0;left=0;bottom=0;right=0;strokeColor=#666666;fontColor=#333333;" parent="W8nmE6WbgOSF25TQNUTi-199" vertex="1"><mxGeometry x="134" width="34" height="20" as="geometry"/></mxCell><mxCell id="W8nmE6WbgOSF25TQNUTi-205" value="5" style="shape=partialRectangle;html=1;whiteSpace=wrap;connectable=0;overflow=hidden;fillColor=#f5f5f5;top=0;left=0;bottom=0;right=0;strokeColor=#666666;fontColor=#333333;" parent="W8nmE6WbgOSF25TQNUTi-199" vertex="1"><mxGeometry x="168" width="33" height="20" as="geometry"/></mxCell><mxCell id="W8nmE6WbgOSF25TQNUTi-206" value="6" style="shape=partialRectangle;html=1;whiteSpace=wrap;connectable=0;overflow=hidden;fillColor=#f5f5f5;top=0;left=0;bottom=0;right=0;strokeColor=#666666;fontColor=#333333;" parent="W8nmE6WbgOSF25TQNUTi-199" vertex="1"><mxGeometry x="201" width="34" height="20" as="geometry"/></mxCell><mxCell id="W8nmE6WbgOSF25TQNUTi-207" value="7" style="shape=partialRectangle;html=1;whiteSpace=wrap;connectable=0;overflow=hidden;fillColor=#f5f5f5;top=0;left=0;bottom=0;right=0;strokeColor=#666666;fontColor=#333333;" parent="W8nmE6WbgOSF25TQNUTi-199" vertex="1"><mxGeometry x="235" width="33" height="20" as="geometry"/></mxCell><mxCell id="W8nmE6WbgOSF25TQNUTi-208" value="8" style="shape=partialRectangle;html=1;whiteSpace=wrap;connectable=0;overflow=hidden;fillColor=#f5f5f5;top=0;left=0;bottom=0;right=0;strokeColor=#666666;fontColor=#333333;" parent="W8nmE6WbgOSF25TQNUTi-199" vertex="1"><mxGeometry x="268" width="34" height="20" as="geometry"/></mxCell><mxCell id="W8nmE6WbgOSF25TQNUTi-209" value="9" style="shape=partialRectangle;html=1;whiteSpace=wrap;connectable=0;overflow=hidden;fillColor=#f5f5f5;top=0;left=0;bottom=0;right=0;strokeColor=#666666;fontColor=#333333;" parent="W8nmE6WbgOSF25TQNUTi-199" vertex="1"><mxGeometry x="302" width="33" height="20" as="geometry"/></mxCell><mxCell id="W8nmE6WbgOSF25TQNUTi-210" value="10" style="shape=partialRectangle;html=1;whiteSpace=wrap;connectable=0;overflow=hidden;fillColor=#f5f5f5;top=0;left=0;bottom=0;right=0;strokeColor=#666666;fontColor=#333333;" parent="W8nmE6WbgOSF25TQNUTi-199" vertex="1"><mxGeometry x="335" width="34" height="20" as="geometry"/></mxCell><mxCell id="W8nmE6WbgOSF25TQNUTi-211" value="11" style="shape=partialRectangle;html=1;whiteSpace=wrap;connectable=0;overflow=hidden;fillColor=#f5f5f5;top=0;left=0;bottom=0;right=0;strokeColor=#666666;fontColor=#333333;" parent="W8nmE6WbgOSF25TQNUTi-199" vertex="1"><mxGeometry x="369" width="33" height="20" as="geometry"/></mxCell><mxCell id="W8nmE6WbgOSF25TQNUTi-212" value="12" style="shape=partialRectangle;html=1;whiteSpace=wrap;connectable=0;overflow=hidden;fillColor=#f5f5f5;top=0;left=0;bottom=0;right=0;strokeColor=#666666;fontColor=#333333;" parent="W8nmE6WbgOSF25TQNUTi-199" vertex="1"><mxGeometry x="402" width="34" height="20" as="geometry"/></mxCell><mxCell id="W8nmE6WbgOSF25TQNUTi-213" value="13" style="shape=partialRectangle;html=1;whiteSpace=wrap;connectable=0;overflow=hidden;fillColor=#f5f5f5;top=0;left=0;bottom=0;right=0;strokeColor=#666666;fontColor=#333333;" parent="W8nmE6WbgOSF25TQNUTi-199" vertex="1"><mxGeometry x="436" width="33" height="20" as="geometry"/></mxCell><mxCell id="W8nmE6WbgOSF25TQNUTi-214" value="14" style="shape=partialRectangle;html=1;whiteSpace=wrap;connectable=0;overflow=hidden;fillColor=#f5f5f5;top=0;left=0;bottom=0;right=0;strokeColor=#666666;fontColor=#333333;" parent="W8nmE6WbgOSF25TQNUTi-199" vertex="1"><mxGeometry x="469" width="34" height="20" as="geometry"/></mxCell><mxCell id="W8nmE6WbgOSF25TQNUTi-215" value="15" style="shape=partialRectangle;html=1;whiteSpace=wrap;connectable=0;overflow=hidden;fillColor=#f5f5f5;top=0;left=0;bottom=0;right=0;strokeColor=#666666;fontColor=#333333;" parent="W8nmE6WbgOSF25TQNUTi-199" vertex="1"><mxGeometry x="503" width="33" height="20" as="geometry"/></mxCell><mxCell id="W8nmE6WbgOSF25TQNUTi-216" value="16" style="shape=partialRectangle;html=1;whiteSpace=wrap;connectable=0;overflow=hidden;fillColor=#f5f5f5;top=0;left=0;bottom=0;right=0;strokeColor=#666666;fontColor=#333333;" parent="W8nmE6WbgOSF25TQNUTi-199" vertex="1"><mxGeometry x="536" width="34" height="20" as="geometry"/></mxCell><mxCell id="W8nmE6WbgOSF25TQNUTi-217" value="17" style="shape=partialRectangle;html=1;whiteSpace=wrap;connectable=0;overflow=hidden;fillColor=#f5f5f5;top=0;left=0;bottom=0;right=0;strokeColor=#666666;fontColor=#333333;" parent="W8nmE6WbgOSF25TQNUTi-199" vertex="1"><mxGeometry x="570" width="33" height="20" as="geometry"/></mxCell><mxCell id="W8nmE6WbgOSF25TQNUTi-218" value="18" style="shape=partialRectangle;html=1;whiteSpace=wrap;connectable=0;overflow=hidden;fillColor=#f5f5f5;top=0;left=0;bottom=0;right=0;strokeColor=#666666;fontColor=#333333;" parent="W8nmE6WbgOSF25TQNUTi-199" vertex="1"><mxGeometry x="603" width="34" height="20" as="geometry"/></mxCell><mxCell id="W8nmE6WbgOSF25TQNUTi-219" value="19" style="shape=partialRectangle;html=1;whiteSpace=wrap;connectable=0;overflow=hidden;fillColor=#f5f5f5;top=0;left=0;bottom=0;right=0;strokeColor=#666666;fontColor=#333333;" parent="W8nmE6WbgOSF25TQNUTi-199" vertex="1"><mxGeometry x="637" width="33" height="20" as="geometry"/></mxCell><mxCell id="W8nmE6WbgOSF25TQNUTi-286" value="20" style="shape=partialRectangle;html=1;whiteSpace=wrap;connectable=0;overflow=hidden;fillColor=#f5f5f5;top=0;left=0;bottom=0;right=0;strokeColor=#666666;fontColor=#333333;" parent="W8nmE6WbgOSF25TQNUTi-199" vertex="1"><mxGeometry x="670" width="33" height="20" as="geometry"/></mxCell><mxCell id="W8nmE6WbgOSF25TQNUTi-220" value="" style="shape=partialRectangle;html=1;whiteSpace=wrap;collapsible=0;dropTarget=0;pointerEvents=0;fillColor=none;top=0;left=0;bottom=0;right=0;points=[[0,0.5],[1,0.5]];portConstraint=eastwest;" parent="W8nmE6WbgOSF25TQNUTi-198" vertex="1"><mxGeometry y="20" width="703" height="30" as="geometry"/></mxCell><mxCell id="W8nmE6WbgOSF25TQNUTi-221" value="0" style="shape=partialRectangle;html=1;whiteSpace=wrap;connectable=0;overflow=hidden;fillColor=none;top=0;left=0;bottom=0;right=0;" parent="W8nmE6WbgOSF25TQNUTi-220" vertex="1"><mxGeometry width="34" height="30" as="geometry"/></mxCell><mxCell id="W8nmE6WbgOSF25TQNUTi-222" value="0" style="shape=partialRectangle;html=1;whiteSpace=wrap;connectable=0;overflow=hidden;fillColor=none;top=0;left=0;bottom=0;right=0;" parent="W8nmE6WbgOSF25TQNUTi-220" vertex="1"><mxGeometry x="34" width="33" height="30" as="geometry"/></mxCell><mxCell id="W8nmE6WbgOSF25TQNUTi-223" value="0" style="shape=partialRectangle;html=1;whiteSpace=wrap;connectable=0;overflow=hidden;fillColor=none;top=0;left=0;bottom=0;right=0;" parent="W8nmE6WbgOSF25TQNUTi-220" vertex="1"><mxGeometry x="67" width="34" height="30" as="geometry"/></mxCell><mxCell id="W8nmE6WbgOSF25TQNUTi-224" value="0" style="shape=partialRectangle;html=1;whiteSpace=wrap;connectable=0;overflow=hidden;fillColor=none;top=0;left=0;bottom=0;right=0;" parent="W8nmE6WbgOSF25TQNUTi-220" vertex="1"><mxGeometry x="101" width="33" height="30" as="geometry"/></mxCell><mxCell id="W8nmE6WbgOSF25TQNUTi-225" value="0" style="shape=partialRectangle;html=1;whiteSpace=wrap;connectable=0;overflow=hidden;fillColor=none;top=0;left=0;bottom=0;right=0;" parent="W8nmE6WbgOSF25TQNUTi-220" vertex="1"><mxGeometry x="134" width="34" height="30" as="geometry"/></mxCell><mxCell id="W8nmE6WbgOSF25TQNUTi-226" value="10" style="shape=partialRectangle;html=1;whiteSpace=wrap;connectable=0;overflow=hidden;fillColor=none;top=0;left=0;bottom=0;right=0;" parent="W8nmE6WbgOSF25TQNUTi-220" vertex="1"><mxGeometry x="168" width="33" height="30" as="geometry"/></mxCell><mxCell id="W8nmE6WbgOSF25TQNUTi-227" value="10" style="shape=partialRectangle;html=1;whiteSpace=wrap;connectable=0;overflow=hidden;fillColor=none;top=0;left=0;bottom=0;right=0;" parent="W8nmE6WbgOSF25TQNUTi-220" vertex="1"><mxGeometry x="201" width="34" height="30" as="geometry"/></mxCell><mxCell id="W8nmE6WbgOSF25TQNUTi-228" value="10" style="shape=partialRectangle;html=1;whiteSpace=wrap;connectable=0;overflow=hidden;fillColor=none;top=0;left=0;bottom=0;right=0;" parent="W8nmE6WbgOSF25TQNUTi-220" vertex="1"><mxGeometry x="235" width="33" height="30" as="geometry"/></mxCell><mxCell id="W8nmE6WbgOSF25TQNUTi-229" value="10" style="shape=partialRectangle;html=1;whiteSpace=wrap;connectable=0;overflow=hidden;fillColor=none;top=0;left=0;bottom=0;right=0;" parent="W8nmE6WbgOSF25TQNUTi-220" vertex="1"><mxGeometry x="268" width="34" height="30" as="geometry"/></mxCell><mxCell id="W8nmE6WbgOSF25TQNUTi-230" value="10" style="shape=partialRectangle;html=1;whiteSpace=wrap;connectable=0;overflow=hidden;fillColor=none;top=0;left=0;bottom=0;right=0;" parent="W8nmE6WbgOSF25TQNUTi-220" vertex="1"><mxGeometry x="302" width="33" height="30" as="geometry"/></mxCell><mxCell id="W8nmE6WbgOSF25TQNUTi-231" value="10" style="shape=partialRectangle;html=1;whiteSpace=wrap;connectable=0;overflow=hidden;fillColor=none;top=0;left=0;bottom=0;right=0;" parent="W8nmE6WbgOSF25TQNUTi-220" vertex="1"><mxGeometry x="335" width="34" height="30" as="geometry"/></mxCell><mxCell id="W8nmE6WbgOSF25TQNUTi-232" value="10" style="shape=partialRectangle;html=1;whiteSpace=wrap;connectable=0;overflow=hidden;fillColor=none;top=0;left=0;bottom=0;right=0;" parent="W8nmE6WbgOSF25TQNUTi-220" vertex="1"><mxGeometry x="369" width="33" height="30" as="geometry"/></mxCell><mxCell id="W8nmE6WbgOSF25TQNUTi-233" value="25" style="shape=partialRectangle;html=1;whiteSpace=wrap;connectable=0;overflow=hidden;fillColor=none;top=0;left=0;bottom=0;right=0;" parent="W8nmE6WbgOSF25TQNUTi-220" vertex="1"><mxGeometry x="402" width="34" height="30" as="geometry"/></mxCell><mxCell id="W8nmE6WbgOSF25TQNUTi-234" value="25" style="shape=partialRectangle;html=1;whiteSpace=wrap;connectable=0;overflow=hidden;fillColor=none;top=0;left=0;bottom=0;right=0;" parent="W8nmE6WbgOSF25TQNUTi-220" vertex="1"><mxGeometry x="436" width="33" height="30" as="geometry"/></mxCell><mxCell id="W8nmE6WbgOSF25TQNUTi-235" value="25" style="shape=partialRectangle;html=1;whiteSpace=wrap;connectable=0;overflow=hidden;fillColor=none;top=0;left=0;bottom=0;right=0;" parent="W8nmE6WbgOSF25TQNUTi-220" vertex="1"><mxGeometry x="469" width="34" height="30" as="geometry"/></mxCell><mxCell id="W8nmE6WbgOSF25TQNUTi-236" value="25" style="shape=partialRectangle;html=1;whiteSpace=wrap;connectable=0;overflow=hidden;fillColor=none;top=0;left=0;bottom=0;right=0;" parent="W8nmE6WbgOSF25TQNUTi-220" vertex="1"><mxGeometry x="503" width="33" height="30" as="geometry"/></mxCell><mxCell id="W8nmE6WbgOSF25TQNUTi-237" value="35" style="shape=partialRectangle;html=1;whiteSpace=wrap;connectable=0;overflow=hidden;fillColor=none;top=0;left=0;bottom=0;right=0;" parent="W8nmE6WbgOSF25TQNUTi-220" vertex="1"><mxGeometry x="536" width="34" height="30" as="geometry"/></mxCell><mxCell id="W8nmE6WbgOSF25TQNUTi-238" value="35" style="shape=partialRectangle;html=1;whiteSpace=wrap;connectable=0;overflow=hidden;fillColor=none;top=0;left=0;bottom=0;right=0;" parent="W8nmE6WbgOSF25TQNUTi-220" vertex="1"><mxGeometry x="570" width="33" height="30" as="geometry"/></mxCell><mxCell id="W8nmE6WbgOSF25TQNUTi-239" value="35" style="shape=partialRectangle;html=1;whiteSpace=wrap;connectable=0;overflow=hidden;fillColor=none;top=0;left=0;bottom=0;right=0;" parent="W8nmE6WbgOSF25TQNUTi-220" vertex="1"><mxGeometry x="603" width="34" height="30" as="geometry"/></mxCell><mxCell id="W8nmE6WbgOSF25TQNUTi-240" value="35" style="shape=partialRectangle;html=1;whiteSpace=wrap;connectable=0;overflow=hidden;fillColor=none;top=0;left=0;bottom=0;right=0;" parent="W8nmE6WbgOSF25TQNUTi-220" vertex="1"><mxGeometry x="637" width="33" height="30" as="geometry"/></mxCell><mxCell id="W8nmE6WbgOSF25TQNUTi-287" value="40" style="shape=partialRectangle;html=1;whiteSpace=wrap;connectable=0;overflow=hidden;fillColor=none;top=0;left=0;bottom=0;right=0;" parent="W8nmE6WbgOSF25TQNUTi-220" vertex="1"><mxGeometry x="670" width="33" height="30" as="geometry"/></mxCell><mxCell id="W8nmE6WbgOSF25TQNUTi-241" value="dy" style="text;html=1;align=center;verticalAlign=middle;resizable=0;points=[];autosize=1;strokeColor=none;" parent="1" vertex="1"><mxGeometry x="520" y="950" width="30" height="20" as="geometry"/></mxCell><mxCell id="W8nmE6WbgOSF25TQNUTi-242" value="&lt;p&gt;&lt;font face=&quot;Lucida Console&quot;&gt;dy[j] : j분이 주어졌을 때 얻을 수 있는 최대 점수&lt;/font&gt;&lt;/p&gt;" style="text;html=1;align=center;verticalAlign=middle;resizable=0;points=[];autosize=1;strokeColor=none;" parent="1" vertex="1"><mxGeometry x="565" y="880" width="320" height="40" as="geometry"/></mxCell><mxCell id="W8nmE6WbgOSF25TQNUTi-285" value="" style="endArrow=classic;html=1;" parent="1" edge="1"><mxGeometry width="50" height="50" relative="1" as="geometry"><mxPoint x="1263" y="920" as="sourcePoint"/><mxPoint x="1133" y="920" as="targetPoint"/></mxGeometry></mxCell><mxCell id="W8nmE6WbgOSF25TQNUTi-290" style="edgeStyle=orthogonalEdgeStyle;rounded=0;orthogonalLoop=1;jettySize=auto;html=1;" parent="1" source="W8nmE6WbgOSF25TQNUTi-289" edge="1"><mxGeometry relative="1" as="geometry"><mxPoint x="1210" y="1010" as="targetPoint"/></mxGeometry></mxCell><mxCell id="W8nmE6WbgOSF25TQNUTi-289" value="1) pv = 10, pt = 5" style="text;html=1;align=center;verticalAlign=middle;resizable=0;points=[];autosize=1;strokeColor=none;" parent="1" vertex="1"><mxGeometry x="1055" y="1000" width="110" height="20" as="geometry"/></mxCell><mxCell id="W8nmE6WbgOSF25TQNUTi-291" value="range(20, pt, -1)" style="text;html=1;align=center;verticalAlign=middle;resizable=0;points=[];autosize=1;strokeColor=none;" parent="1" vertex="1"><mxGeometry x="1210" y="1000" width="100" height="20" as="geometry"/></mxCell><mxCell id="W8nmE6WbgOSF25TQNUTi-295" style="edgeStyle=orthogonalEdgeStyle;rounded=0;orthogonalLoop=1;jettySize=auto;html=1;" parent="1" source="W8nmE6WbgOSF25TQNUTi-294" edge="1"><mxGeometry relative="1" as="geometry"><mxPoint x="1220" y="1040" as="targetPoint"/></mxGeometry></mxCell><mxCell id="W8nmE6WbgOSF25TQNUTi-294" value="2) pv = 25, pt = 12" style="text;html=1;align=center;verticalAlign=middle;resizable=0;points=[];autosize=1;strokeColor=none;" parent="1" vertex="1"><mxGeometry x="1055" y="1030" width="110" height="20" as="geometry"/></mxCell><mxCell id="W8nmE6WbgOSF25TQNUTi-296" value="range(20, pt, -1)" style="text;html=1;align=center;verticalAlign=middle;resizable=0;points=[];autosize=1;strokeColor=none;" parent="1" vertex="1"><mxGeometry x="1220" y="1030" width="100" height="20" as="geometry"/></mxCell><mxCell id="W8nmE6WbgOSF25TQNUTi-297" value="&lt;p&gt;&lt;font face=&quot;Lucida Console&quot;&gt;max(dy[j-pt] + ps, dy[j])&lt;/font&gt;&lt;/p&gt;" style="text;html=1;align=center;verticalAlign=middle;resizable=0;points=[];autosize=1;strokeColor=#b85450;fillColor=#f8cecc;" parent="1" vertex="1"><mxGeometry x="915" y="880" width="200" height="40" as="geometry"/></mxCell><mxCell id="W8nmE6WbgOSF25TQNUTi-298" style="edgeStyle=orthogonalEdgeStyle;rounded=0;orthogonalLoop=1;jettySize=auto;html=1;" parent="1" source="W8nmE6WbgOSF25TQNUTi-299" edge="1"><mxGeometry relative="1" as="geometry"><mxPoint x="1220" y="1070" as="targetPoint"/></mxGeometry></mxCell><mxCell id="W8nmE6WbgOSF25TQNUTi-299" value="3) pv = 15, pt = 8" style="text;html=1;align=center;verticalAlign=middle;resizable=0;points=[];autosize=1;strokeColor=none;" parent="1" vertex="1"><mxGeometry x="1055" y="1060" width="110" height="20" as="geometry"/></mxCell><mxCell id="W8nmE6WbgOSF25TQNUTi-300" value="range(20, pt, -1)" style="text;html=1;align=center;verticalAlign=middle;resizable=0;points=[];autosize=1;strokeColor=none;" parent="1" vertex="1"><mxGeometry x="1220" y="1060" width="100" height="20" as="geometry"/></mxCell></root></mxGraphModel></diagram></mxfile>